<?xml version="1.0" encoding="UTF-8"?>
<svg version="1.1" xmlns="http://www.w3.org/2000/svg" width="1944" height="534">
<path d="M0 0 C10.89 0 21.78 0 33 0 C38.34226153 5.93584614 43.48107085 11.76506484 48.484375 17.94921875 C51.42925052 21.52056624 54.45720087 25.0121164 57.5 28.5 C61.99520733 33.65564063 66.38623664 38.87511424 70.69140625 44.19140625 C73.41344067 47.5029845 76.2013889 50.75313789 79 54 C83.42140915 59.1302593 87.74975226 64.32061936 92.01953125 69.578125 C94.62662461 72.7662865 97.30282648 75.8878767 100 79 C106.09725569 72.46966821 112.01382321 65.87550392 117.62109375 58.9140625 C120.35905153 55.56017662 123.17219888 52.27810205 126 49 C130.3220071 43.98432907 134.55479987 38.90823728 138.73046875 33.76953125 C143.08507655 28.45556063 147.55155658 23.23541762 152 18 C153.98027486 15.66760449 155.95915506 13.33403251 157.9375 11 C158.61014893 10.20843506 158.61014893 10.20843506 159.29638672 9.40087891 C161.92007235 6.30574203 164.46376137 3.17029829 167 0 C177.89 0 188.78 0 200 0 C200 60.06 200 120.12 200 182 C187.79 182 175.58 182 163 182 C162.67 142.07 162.34 102.14 162 61 C154.27717765 69.31688561 146.63997301 77.54700378 139.30078125 86.171875 C133.47521494 93.00885071 127.55852526 99.72877801 121.4609375 106.32421875 C119.3797218 108.58712788 117.33266689 110.87024975 115.3125 113.1875 C114.77109375 113.79980469 114.2296875 114.41210938 113.671875 115.04296875 C112.43422313 116.49171545 111.2428562 117.98028577 110.078125 119.48828125 C104.37318264 126.59734702 104.37318264 126.59734702 100.0625 127.1875 C94.00339777 126.46278385 90.51401463 120.44043667 87 116 C85.86283286 114.6799844 84.71765927 113.36679956 83.5625 112.0625 C83.00691406 111.42441406 82.45132813 110.78632813 81.87890625 110.12890625 C79.61265832 107.56112014 77.30776063 105.03053089 75 102.5 C71.54671847 98.71337002 68.13900949 94.8952368 64.77734375 91.02734375 C62.70640513 88.66510827 60.60487152 86.33204147 58.5 84 C55.81016569 81.01937279 53.13689636 78.02754767 50.5 75 C46.38032397 70.29179882 42.18511569 65.65012855 38 61 C37.67 100.93 37.34 140.86 37 182 C24.79 182 12.58 182 0 182 C0 121.94 0 61.88 0 0 Z " fill="#FFFFFF" transform="translate(551,159)"/>
<path d="M0 0 C2.15905893 1.9114405 4.06099032 3.85688404 6 6 C6.495 -0.435 6.495 -0.435 7 -7 C18.22 -7 29.44 -7 41 -7 C41.06791915 9.70811147 41.12309886 26.41610373 41.15543652 43.12431526 C41.17085559 50.88354588 41.19184929 58.64268415 41.22631836 66.40185547 C41.25637364 73.17072996 41.27561097 79.93953752 41.28226548 86.7084769 C41.28615067 90.28717207 41.29517561 93.86567587 41.31719017 97.44430923 C41.3416606 101.45530664 41.34195976 105.46597881 41.34057617 109.47705078 C41.351362 110.64231293 41.36214783 111.80757507 41.3732605 113.00814819 C41.31137813 129.71049514 37.21457556 145.33469879 25.3125 157.4375 C9.12375823 172.9814231 -12.09844459 177.43318822 -33.875 177.375 C-34.60344116 177.37478851 -35.33188232 177.37457703 -36.08239746 177.37435913 C-74.73749871 177.26250129 -74.73749871 177.26250129 -85 167 C-84.81256586 157.28226092 -83.38559917 147.60502728 -82 138 C-78.41085462 136.70691298 -76.53166034 137.31016804 -73.0625 138.75 C-54.29453568 146.00125894 -30.93579563 148.59199793 -11.96875 140.74609375 C-3.97063455 136.8007868 0.70918616 131.89817497 3.875 123.5625 C5.24423732 118.96634666 5.22712 114.76951993 5 110 C4.47792969 110.44730469 3.95585938 110.89460938 3.41796875 111.35546875 C-11.2270084 123.38435541 -26.64913111 125.14110733 -45 124 C-59.85673398 122.15963881 -73.30396093 114.23308369 -83 103 C-96.92422598 84.78961461 -99.31986121 62.20851233 -96.609375 39.9609375 C-93.54620856 24.4487485 -84.66943999 10.44114726 -72.203125 0.84765625 C-51.41925028 -13.03761599 -20.69092536 -15.72047961 0 0 Z M-55.5 34.65625 C-62.20717568 43.12006693 -63.04780581 53.55726121 -62 64 C-59.72441559 74.06656834 -54.50805451 81.8552627 -46.06640625 87.75 C-37.72529568 92.79566235 -28.85882024 93.93033182 -19.4140625 91.72265625 C-10.24149721 88.9768236 -2.85591923 83.53358202 1.93359375 75.1875 C6.8736142 65.05412472 7.71942147 54.09322233 4.0390625 43.37890625 C0.17874862 34.54081922 -5.72169006 27.81501248 -14.4375 23.625 C-29.98813261 17.97454113 -44.73137447 22.76589264 -55.5 34.65625 Z " fill="#FFFFFF" transform="translate(1297,219)"/>
<path d="M0 0 C1.73334905 0.13875164 3.46626035 0.28297745 5.19897461 0.42944336 C6.16403427 0.50915878 7.12909393 0.58887421 8.12339783 0.67100525 C12.42674655 1.16317589 16.43757475 2.27482492 20.5625 3.5625 C21.4174707 3.82643555 22.27244141 4.09037109 23.15332031 4.36230469 C62.56444497 16.93723011 94.7151582 44.50973939 114 81 C122.14644139 96.85532282 127.93852561 114.24990232 130 132 C130.10957031 132.82371094 130.21914063 133.64742187 130.33203125 134.49609375 C131.7541373 146.95374274 131.43520627 159.67615974 130.125 172.125 C130.04660889 172.90109619 129.96821777 173.67719238 129.88745117 174.47680664 C129.66874034 176.3286143 129.34440901 178.1674039 129 180 C128.34 180.33 127.68 180.66 127 181 C124.95068359 179.97460938 124.95068359 179.97460938 122.3984375 178.34375 C120.96890747 177.43943237 120.96890747 177.43943237 119.51049805 176.5168457 C117.95842651 175.51850708 117.95842651 175.51850708 116.375 174.5 C114.1811376 173.10783963 111.98712292 171.71591922 109.79296875 170.32421875 C108.65405352 169.59827095 107.51521911 168.87219636 106.37646484 168.14599609 C101.17020627 164.83081929 95.92643316 161.57567978 90.6875 158.3125 C83.61270544 153.89431186 76.54854285 149.45994199 69.5 145 C62.38775038 140.50036694 55.26114195 136.02414894 48.125 131.5625 C46.61462158 130.61793945 46.61462158 130.61793945 45.07373047 129.65429688 C40.11089843 126.55441848 35.14118685 123.46656422 30.15625 120.40234375 C29.22409668 119.82863037 28.29194336 119.25491699 27.33154297 118.66381836 C25.59788479 117.59807052 23.86267225 116.53484455 22.12548828 115.47485352 C17.91959697 112.88908216 13.75601625 110.23938707 9.6484375 107.5 C8.85356934 106.9740625 8.05870117 106.448125 7.23974609 105.90625 C3.9616367 103.11624803 1.40187351 100.25579989 0.62380791 95.88835526 C0.46883328 93.35915726 0.43985627 90.85670442 0.45410156 88.32275391 C0.44376389 87.36602783 0.43342621 86.40930176 0.42277527 85.42358398 C0.39337569 82.27440444 0.39184867 79.12586842 0.390625 75.9765625 C0.37564148 73.78794125 0.35891397 71.59933129 0.34051514 69.41073608 C0.29684904 63.66013059 0.27684401 57.90967762 0.26177979 52.15893555 C0.24220618 46.2868549 0.20023638 40.4149389 0.16015625 34.54296875 C0.084862 23.02869663 0.03456563 11.51446138 0 0 Z " fill="#FFFFFF" transform="translate(318,99)"/>
<path d="M0 0 C0.03150646 12.77005769 0.02537798 25.5394943 -0.02846622 38.30949402 C-0.05229459 44.23954666 -0.06328047 50.16903771 -0.04467773 56.09912109 C-0.02719274 61.82477864 -0.04375482 67.54942841 -0.08367729 73.27496338 C-0.09295361 75.45654565 -0.09007283 77.6382154 -0.07469368 79.81976318 C-0.05520476 82.88226294 -0.07939253 85.9415981 -0.11352539 89.00390625 C-0.0977092 89.90086716 -0.08189301 90.79782806 -0.06559753 91.7219696 C-0.19593181 97.82071862 -1.87597355 100.92298285 -6.08144283 105.31684875 C-9.4512126 108.2731496 -13.1589516 110.45088651 -17.0625 112.625 C-18.8518857 113.65995546 -20.6395882 114.6978254 -22.42578125 115.73828125 C-23.34568848 116.27146973 -24.2655957 116.8046582 -25.21337891 117.35400391 C-29.79716633 120.06154682 -34.27155506 122.9351425 -38.75 125.8125 C-46.43157023 130.73117958 -54.13651306 135.60879976 -61.875 140.4375 C-62.87241211 141.05987549 -63.86982422 141.68225098 -64.89746094 142.32348633 C-66.92075337 143.58551906 -68.94419116 144.84731879 -70.96777344 146.10888672 C-74.98318578 148.61318495 -78.99613954 151.12140489 -83.00878906 153.63012695 C-84.99222102 154.87001476 -86.97594192 156.10944047 -88.95996094 157.34838867 C-94.18954805 160.61451604 -99.41433115 163.88802784 -104.6328125 167.171875 C-105.71949219 167.85443359 -106.80617187 168.53699219 -107.92578125 169.24023438 C-110.00530605 170.54660252 -112.08350725 171.85508083 -114.16015625 173.16601562 C-118.68592098 176.00625892 -123.15165258 178.74723251 -128 181 C-130.20366928 171.66688667 -130.3597111 162.46467492 -130.3125 152.9375 C-130.31034485 152.15865448 -130.3081897 151.37980896 -130.30596924 150.57736206 C-130.25507886 139.13335155 -129.88077847 128.1305216 -127 117 C-126.81727539 116.24396484 -126.63455078 115.48792969 -126.44628906 114.70898438 C-121.83028982 95.98727973 -113.70166785 77.4007488 -102 62 C-101.35546875 61.14792969 -100.7109375 60.29585937 -100.046875 59.41796875 C-88.14256033 44.16263636 -74.9398387 31.68114995 -58.76708984 21.15136719 C-57.31000896 20.20198981 -55.8660242 19.23254445 -54.42578125 18.2578125 C-39.44710488 8.58571781 -17.98003184 -0.14631686 0 0 Z " fill="#FFFFFF" transform="translate(270,99)"/>
<path d="M0 0 C11.55 0 23.1 0 35 0 C35.33 23.43 35.66 46.86 36 71 C38.31 69.02 40.62 67.04 43 65 C55.95751767 56.78949745 70.5538716 55.33908823 85.47265625 57.50390625 C98.27345826 60.39440993 108.52916277 66.42107152 115.8125 77.4375 C118.45991922 81.85387661 120.56143136 86.0650869 122 91 C122.27056717 91.92116104 122.27056717 91.92116104 122.54660034 92.8609314 C124.80362057 102.14893915 124.24866427 111.73739682 124.1953125 121.2265625 C124.19157689 123.1852504 124.18873251 125.14394017 124.18673706 127.10263062 C124.17914375 132.22850816 124.15953271 137.35427024 124.1373291 142.48010254 C124.11677747 147.72239623 124.10771551 152.96470879 124.09765625 158.20703125 C124.07628233 168.47141275 124.04113576 178.73567866 124 189 C112.45 189 100.9 189 89 189 C88.95101563 183.69035156 88.90203125 178.38070312 88.8515625 172.91015625 C88.8161496 169.53318483 88.78017444 166.15623793 88.7421875 162.77929688 C88.6820335 157.42703891 88.62388776 152.074815 88.578125 146.72241211 C88.54107204 142.40400531 88.49465957 138.08578861 88.44193649 133.7675457 C88.42349831 132.12548619 88.40835194 130.4833861 88.39665604 128.84126472 C88.56809827 111.79039492 88.56809827 111.79039492 81 97 C73.16794478 90.83531591 65.79825709 90.23150925 56 91 C50.12888242 92.55660754 45.19371745 95.61122592 41 100 C36.81912656 107.2361271 35.89369529 114.18493734 35.79467773 122.47412109 C35.78477814 123.19676147 35.77487854 123.91940186 35.76467896 124.66394043 C35.73329077 127.03374036 35.70839706 129.40356029 35.68359375 131.7734375 C35.66300459 133.42396543 35.64200762 135.07448832 35.62062073 136.7250061 C35.5656026 141.05515443 35.51610454 145.38534873 35.46777344 149.71557617 C35.40854464 154.91863499 35.34242884 160.12161035 35.27747345 165.32460022 C35.17971906 173.21634888 35.09068871 181.10815273 35 189 C23.45 189 11.9 189 0 189 C0 126.63 0 64.26 0 0 Z " fill="#FFFFFF" transform="translate(1362,152)"/>
<path d="M0 0 C0.82959229 0.00563965 1.65918457 0.0112793 2.51391602 0.01708984 C15.4131545 0.27058203 28.55669492 3.8633195 37.9375 13.1875 C39.29875 14.734375 39.29875 14.734375 40.6875 16.3125 C41.1825 9.8775 41.1825 9.8775 41.6875 3.3125 C53.2375 3.3125 64.7875 3.3125 76.6875 3.3125 C76.6875 45.8825 76.6875 88.4525 76.6875 132.3125 C65.1375 132.3125 53.5875 132.3125 41.6875 132.3125 C41.3575 127.6925 41.0275 123.0725 40.6875 118.3125 C39.82125 119.323125 38.955 120.33375 38.0625 121.375 C28.84048594 130.59701406 15.90006513 134.4719935 3.14013672 134.69287109 C-15.20370472 134.65555239 -30.10064928 130.15395183 -43.671875 117.203125 C-56.91029618 102.71136217 -63.02435924 83.92284762 -62.5625 64.3515625 C-61.04122793 45.85859887 -55.40268714 28.21696202 -41.5390625 15.15625 C-29.46407534 5.15731326 -15.63697638 -0.1125078 0 0 Z M-17.3515625 41.1328125 C-24.59703069 48.74826205 -27.7230074 58.54296294 -27.5234375 68.98046875 C-26.55914052 79.64130759 -22.86397962 88.30839715 -15 95.625 C-7.66012974 101.48387648 1.33400435 104.33506866 10.6875 103.3125 C22.0106372 101.16950217 28.93967462 96.15597739 36.125 87.3125 C41.58571677 76.8279238 42.7852661 64.85413916 39.25 53.4375 C35.73705207 45.22412877 29.24298796 38.15455944 21.1953125 34.21484375 C7.09821749 29.14252452 -6.14160528 31.12545605 -17.3515625 41.1328125 Z " fill="#FFFFFF" transform="translate(831.3125,208.6875)"/>
<path d="M0 0 C2.4706731 1.9015128 4.71699836 3.86919847 7 6 C7.66 2.04 8.32 -1.92 9 -6 C20.22 -6 31.44 -6 43 -6 C43 36.57 43 79.14 43 123 C31.78 123 20.56 123 9 123 C8.34 118.71 7.68 114.42 7 110 C5.329375 111.5778125 5.329375 111.5778125 3.625 113.1875 C-9.14359562 124.27601725 -24.42466124 125.9288598 -40.71484375 125.1640625 C-55.18025214 124.12552036 -66.98815238 117.13394332 -77 107 C-77.63679688 106.38511719 -78.27359375 105.77023437 -78.9296875 105.13671875 C-91.77621187 91.80488124 -95.65474145 73.04086917 -95.47070312 55.15234375 C-94.88942614 37.36774159 -88.71473313 19.82626588 -76 7 C-54.85230812 -11.00411606 -23.89518836 -15.84148417 0 0 Z M-50.5546875 31.390625 C-58.36501776 40.08753329 -60.50024739 49.7242293 -60.30859375 61.14453125 C-59.53277492 70.83735637 -56.05387768 79.21484147 -49 86 C-40.85624476 92.17756311 -32.24107956 95.07174088 -22 94 C-11.50460867 92.03004484 -3.69225964 86.91555436 2.5625 78.30078125 C5.71273547 73.25869242 7.39572342 67.9219105 8 62 C8.06445312 61.36835938 8.12890625 60.73671875 8.1953125 60.0859375 C8.73601253 50.1731037 5.43274798 40.45609421 -1.0078125 32.9375 C-14.82751505 19.49716183 -35.87362142 18.39427143 -50.5546875 31.390625 Z " fill="#FFFFFF" transform="translate(1139,218)"/>
<path d="M0 0 C2.82499149 2.21306336 5.3859241 4.53115054 8 7 C8.66 3.04 9.32 -0.92 10 -5 C21.22 -5 32.44 -5 44 -5 C44 37.57 44 80.14 44 124 C32.78 124 21.56 124 10 124 C9.34 119.71 8.68 115.42 8 111 C6.741875 112.216875 5.48375 113.43375 4.1875 114.6875 C-9.0219975 126.40393028 -25.19931332 126.99364351 -42 126 C-57.76224561 124.10508523 -70.75956263 114.65999738 -80.75 102.75 C-92.63312207 86.66294323 -96.26580876 65.52736047 -93.50390625 45.98046875 C-90.50377934 29.52214542 -83.23627631 14.66316164 -70 4 C-49.54565992 -10.09306617 -21.75820634 -13.71713009 0 0 Z M-49.75 33.125 C-57.28302108 41.11350608 -59.33196806 51.26483667 -59.21484375 61.87109375 C-58.51725139 72.03057526 -54.14426354 80.15807539 -47 87.25 C-40.80233976 92.50611252 -32.90769221 95.02782428 -24.8125 95.4375 C-13.73470392 94.1662775 -4.33134874 89.75798828 2.71875 80.92578125 C8.67675456 71.97060976 9.85786842 62.57232213 9 52 C6.71553878 41.93531656 1.5067322 34.14381395 -6.93359375 28.25 C-21.03888338 19.71749966 -37.68399465 22.28119778 -49.75 33.125 Z " fill="#FFFFFF" transform="translate(1596,217)"/>
<path d="M0 0 C10.08170447 8.46675026 16.9430086 18.95187179 18.22044373 32.30417252 C18.55781773 38.73737425 18.45958408 45.17422119 18.390625 51.61328125 C18.38314994 53.67977853 18.377463 55.74628297 18.37347412 57.81278992 C18.35831738 63.21003335 18.31912305 68.60683533 18.2746582 74.00390625 C18.23348887 79.52793407 18.21541715 85.05203433 18.1953125 90.57617188 C18.15261771 101.38433818 18.08235101 112.19206304 18 123 C6.45 123 -5.1 123 -17 123 C-17.02578125 117.32941406 -17.0515625 111.65882813 -17.078125 105.81640625 C-17.10330874 102.21154411 -17.12965335 98.60676461 -17.16015625 95.00195312 C-17.20840039 89.28751372 -17.25247915 83.57326572 -17.27099609 77.85864258 C-17.28620471 73.24833789 -17.32072442 68.63853591 -17.36830902 64.02845573 C-17.38307959 62.2747632 -17.39103852 60.52099887 -17.39188385 58.76724434 C-17.38909132 43.8806569 -17.38909132 43.8806569 -24.4375 31.125 C-31.45543509 25.30524895 -37.25785559 24.51876991 -46.24609375 24.59375 C-52.96443634 25.32081309 -58.92576692 27.99303679 -63.78515625 32.74609375 C-68.27547777 38.6240948 -69.29717321 44.73764412 -69.31884766 51.93310547 C-69.33391609 53.09021782 -69.33391609 53.09021782 -69.34928894 54.27070618 C-69.38000852 56.80285952 -69.39712458 59.33490768 -69.4140625 61.8671875 C-69.4327832 63.62982074 -69.45235729 65.3924451 -69.4727478 67.15505981 C-69.52397974 71.78111528 -69.5636532 76.40719977 -69.60089111 81.03338623 C-69.64804374 86.59106977 -69.70960318 92.14861028 -69.76873779 97.70617676 C-69.85684107 106.13739316 -69.92668334 114.56858365 -70 123 C-81.55 123 -93.1 123 -105 123 C-105 80.43 -105 37.86 -105 -6 C-94.11 -6 -83.22 -6 -72 -6 C-71.34 -2.37 -70.68 1.26 -70 5 C-68.68 3.9275 -67.36 2.855 -66 1.75 C-47.26382831 -12.70278563 -19.5778904 -13.50199338 0 0 Z " fill="#FFFFFF" transform="translate(1770,218)"/>
<path d="M0 0 C1.13514741 17.12158209 1.28577685 34.25150345 1.35009766 51.40380859 C1.36357294 54.65636454 1.3917343 57.90831326 1.43212891 61.16064453 C1.48154051 65.14546186 1.50622033 69.12971961 1.51332474 73.11483002 C1.519993 74.61546792 1.53509821 76.11609536 1.55921555 77.61655426 C1.70810964 87.40953717 0.85017935 93.67912814 -5.8515625 101.03125 C-6.43679688 101.5159375 -7.02203125 102.000625 -7.625 102.5 C-8.305625 103.06460938 -8.98625 103.62921875 -9.6875 104.2109375 C-13.21350236 106.93882446 -16.81586824 109.55167874 -20.453125 112.12890625 C-22.56676767 113.68172042 -24.45961458 115.28040171 -26.375 117.0625 C-29 119 -29 119 -31.16015625 118.84375 C-34.97073907 117.71158234 -38.47453856 116.13817771 -42.0625 114.4375 C-43.18978516 113.90394897 -43.18978516 113.90394897 -44.33984375 113.35961914 C-50.99934375 110.13143788 -57.02307914 106.38071054 -63 102 C-63.78632813 101.42507813 -64.57265625 100.85015625 -65.3828125 100.2578125 C-71.22245575 95.84247248 -76.65139773 90.99313103 -82 86 C-82.80308594 85.26265625 -83.60617188 84.5253125 -84.43359375 83.765625 C-98.027493 70.80248268 -110.12015929 53.94598448 -116 36 C-94.69767759 28.77286693 -73.28332116 21.96650292 -51.78491211 15.34814453 C-47.82784093 14.12912791 -43.87199383 12.90615165 -39.91601562 11.68359375 C-32.8466251 9.49953339 -25.77681661 7.31685177 -18.70431519 5.1428833 C-16.20215523 4.37089801 -13.70180173 3.59303678 -11.20315552 2.80975342 C-10.02760101 2.44247131 -8.85204651 2.07518921 -7.64086914 1.69677734 C-6.59959366 1.36930511 -5.55831818 1.04183289 -4.48548889 0.70443726 C-2 0 -2 0 0 0 Z " fill="#FFFFFF" transform="translate(268,277)"/>
<path d="M0 0 C8.15951836 1.62676593 16.00840915 4.1022296 23.92578125 6.62109375 C25.38594769 7.08235031 26.84623695 7.54321824 28.30664062 8.00372314 C32.18034062 9.22610492 36.05266931 10.45277193 39.92465591 11.6805687 C47.06270949 13.94328603 54.20307733 16.19868918 61.34375 18.453125 C62.11942133 18.69817465 62.89509266 18.9432243 63.69426918 19.19569969 C72.97551257 22.1264607 82.26548225 25.01846187 91.59375 27.796875 C92.46621872 28.05763321 93.33868744 28.31839142 94.2375946 28.58705139 C98.04156198 29.72179112 101.84874834 30.84264616 105.66333008 31.94116211 C107.55668091 32.50202515 107.55668091 32.50202515 109.48828125 33.07421875 C110.54571533 33.37932373 111.60314941 33.68442871 112.69262695 33.9987793 C113.45406006 34.32918213 114.21549316 34.65958496 115 35 C116 38 116 38 115.35424805 39.86254883 C114.99371338 40.55372803 114.63317871 41.24490723 114.26171875 41.95703125 C113.85880615 42.73312744 113.45589355 43.50922363 113.04077148 44.30883789 C112.3709021 45.54815063 112.3709021 45.54815063 111.6875 46.8125 C111.2325415 47.66255615 110.77758301 48.5126123 110.30883789 49.38842773 C104.40115992 60.20205141 97.45754307 69.82102887 89.0078125 78.81640625 C86.93597301 81.01608181 86.93597301 81.01608181 84.95703125 83.578125 C73.68986886 97.52151958 55.82205337 107.85710417 39.9375 115.5625 C39.21079102 115.92166504 38.48408203 116.28083008 37.73535156 116.65087891 C32.55877353 119.08141941 32.55877353 119.08141941 29.92236328 118.69726562 C27.09091173 117.67026212 25.21532792 115.89327861 22.9375 113.9375 C19.13369006 110.72358572 15.28837038 107.7610501 11.1875 104.9375 C5.37358545 100.77044537 0.4950682 96.19257096 -1 89 C-1.08786345 85.96759395 -1.11605162 82.96163397 -1.09375 79.9296875 C-1.09016479 78.981008 -1.08657959 78.03232849 -1.08288574 77.05490112 C-1.00751355 62.84598734 -0.76232206 48.63788408 -0.53643799 34.4307251 C-0.47486593 30.53456515 -0.41526273 26.63837507 -0.35546875 22.7421875 C-0.23885078 15.16142842 -0.12013702 7.58070422 0 0 Z " fill="#FFFFFF" transform="translate(320,277)"/>
<path d="M0 0 C11.55 0 23.1 0 35 0 C35 62.37 35 124.74 35 189 C23.45 189 11.9 189 0 189 C0 126.63 0 64.26 0 0 Z " fill="#FFFFFF" transform="translate(991,152)"/>
<path d="M0 0 C11.55 0 23.1 0 35 0 C35 62.37 35 124.74 35 189 C23.45 189 11.9 189 0 189 C0 126.63 0 64.26 0 0 Z " fill="#FFFFFF" transform="translate(932,152)"/>
</svg>
