<svg width="205" height="40" viewBox="0 0 205 40" fill="none" xmlns="http://www.w3.org/2000/svg">
<path d="M3.20312 5.625L4.72656 5.42969C6.15885 5.6901 6.875 5.95052 6.875 6.21094C7.21354 6.36719 7.52604 6.70573 7.8125 7.22656C8.48958 7.7474 9.27083 9.14062 10.1562 11.4062L11.3672 13.6328C11.8359 15.3255 12.1875 16.1719 12.4219 16.1719C12.7344 16.1719 13.2552 15.3385 13.9844 13.6719C14.8698 11.849 16.1458 9.6224 17.8125 6.99219C18.3073 6.8099 18.5547 6.61458 18.5547 6.40625C18.7109 6.04167 18.9193 5.80729 19.1797 5.70312L19.6875 5.74219C20.0781 5.61198 20.4818 5.52083 20.8984 5.46875C22.6693 5.70312 23.5547 5.97656 23.5547 6.28906V6.32812L23.6328 15.4688L23.5547 18.0078C23.6849 19.0755 23.9062 21.8229 24.2188 26.25L24.1406 26.6797C24.349 26.8099 24.6745 26.875 25.1172 26.875C25.6641 26.9531 25.9375 27.2005 25.9375 27.6172V27.8516C25.9375 29.5703 25.8333 30.4297 25.625 30.4297H25.5469C25.1302 30.2214 24.7005 30.1172 24.2578 30.1172H21.9531C19.5573 30.1172 18.3594 29.8698 18.3594 29.375L18.4766 28.3984V28.2422C18.4766 28.138 18.3854 27.9557 18.2031 27.6953V27.4609C18.2031 27.3307 18.6328 27.1875 19.4922 27.0312L19.7266 26.7578L19.6094 26.5234V25.9375C19.6094 25.5469 19.7396 24.9089 20 24.0234L20.1562 23.8281C19.974 23.6198 19.8828 22.5521 19.8828 20.625V18.2422L19.9219 17.0703C19.8177 16.7839 19.7656 16.4062 19.7656 15.9375V15.3516C19.7656 14.7786 19.8438 13.9844 20 12.9688C20 12.6562 20.1302 12.2396 20.3906 11.7188L20.4297 11.4844C20.2474 10.599 20.1562 9.96094 20.1562 9.57031H20.0391C19.5964 10.013 18.8932 10.9896 17.9297 12.5C16.8359 14.5573 15.8464 16.1979 14.9609 17.4219L13.3984 19.6484C13.2422 19.8828 13.0208 20 12.7344 20L12.2656 19.8047C12.0052 19.8568 11.8099 19.9219 11.6797 20C11.3672 20 11.1849 19.7005 11.1328 19.1016C10.8464 18.5026 10.4427 17.9036 9.92188 17.3047C9.50521 16.8099 8.71094 15.3255 7.53906 12.8516L7.10938 12.0703L6.60156 11.1719L6.64062 11.1328H6.875C7.00521 11.1328 7.10938 11.3021 7.1875 11.6406L7.22656 11.7188H7.34375V11.5625C7.34375 10.7812 6.97917 10.0781 6.25 9.45312H6.13281V9.64844H5.82031V9.88281L5.78125 10.2734V10.6641C6.19792 16.3932 6.40625 21.3151 6.40625 25.4297C6.35417 25.5599 6.26302 25.625 6.13281 25.625C6.02865 25.625 5.97656 25.4818 5.97656 25.1953L5.89844 25.1562H5.82031L5.70312 25.9766C6.04167 26.1589 6.21094 26.3802 6.21094 26.6406L6.13281 27.1094C5.71615 27.1094 5.50781 27.0182 5.50781 26.8359H5.39062L5.27344 27.0312V27.2266C5.27344 27.3307 5.79427 27.5 6.83594 27.7344H6.99219C7.17448 27.7344 7.36979 27.6953 7.57812 27.6172C8.64583 27.8255 9.17969 28.0208 9.17969 28.2031V28.3594L8.94531 28.3984C8.76302 28.3984 8.48958 28.2552 8.125 27.9688H7.92969C7.30469 28.0469 6.99219 28.151 6.99219 28.2812C7.01823 28.3854 7.10938 28.4375 7.26562 28.4375H7.8125C8.59375 28.5156 8.98438 28.6589 8.98438 28.8672L9.0625 29.2578V29.4922C9.0625 29.8307 8.78906 30.026 8.24219 30.0781C7.85156 29.8958 7.44792 29.8047 7.03125 29.8047V29.8438C7.03125 29.9219 7.16146 29.9609 7.42188 29.9609C7.76042 30.0391 7.92969 30.1172 7.92969 30.1953L7.5 30.2344C6.71875 30.2344 5.15625 30.0911 2.8125 29.8047L1.83594 30.0781C1.36719 29.974 1.13281 29.7786 1.13281 29.4922V29.2578C0.820312 29.2578 0.611979 28.9323 0.507812 28.2812L0.46875 28.2031V28.0078C0.755208 27.487 1.27604 27.2266 2.03125 27.2266C2.68229 27.0703 3.00781 26.9531 3.00781 26.875V26.8359L2.34375 8.75L2.42188 7.07031L2.26562 6.44531C2.26562 5.89844 2.57812 5.625 3.20312 5.625ZM5.97656 8.00781C6.28906 8.58073 6.79688 9.25781 7.5 10.0391L8.94531 12.9297H9.0625C9.0625 12.487 8.55469 11.1719 7.53906 8.98438C7.53906 8.80208 7.27865 8.47656 6.75781 8.00781L6.67969 7.77344H6.44531C6.13281 7.79948 5.97656 7.8776 5.97656 8.00781ZM5.3125 20.2734C5.26042 20.4297 5.23438 20.599 5.23438 20.7812V22.9688L5.27344 25.0391L5.3125 25.1172H5.39062C5.65104 25.1172 5.82031 24.9349 5.89844 24.5703V24.3359C5.79427 24.3359 5.71615 24.1927 5.66406 23.9062L5.70312 23.2031V23.1641C5.70312 22.5391 5.63802 22.0703 5.50781 21.7578L5.625 21.2109C5.59896 20.638 5.49479 20.3255 5.3125 20.2734ZM15.1562 13.75L15.2344 13.8281C15.4427 13.6979 15.7161 13.2422 16.0547 12.4609C16.2891 12.2266 16.4974 11.7708 16.6797 11.0938V11.0156L16.5234 10.9375C16.1589 10.9375 15.7031 11.875 15.1562 13.75ZM22.6562 13.75C22.7083 15.4427 22.8255 16.3281 23.0078 16.4062L23.0859 16.3281V15.0781C23.0859 14.0885 23.0469 13.3464 22.9688 12.8516H22.8516C22.7214 12.8516 22.6562 13.151 22.6562 13.75ZM5.15625 15.4688C5.20833 16.849 5.29948 17.5391 5.42969 17.5391H5.50781V17.0312C5.50781 16.224 5.48177 15.4036 5.42969 14.5703H5.39062C5.28646 14.5703 5.20833 14.8698 5.15625 15.4688ZM4.57031 9.57031H4.375L4.33594 9.80469V11.1719C4.33594 11.6406 4.40104 11.875 4.53125 11.875C4.66146 11.875 4.72656 11.5365 4.72656 10.8594C4.72656 10.3125 4.67448 9.88281 4.57031 9.57031ZM23.0859 23.8281C22.9297 23.9844 22.8516 24.2839 22.8516 24.7266V25.3125L23.0078 25.5469H23.2422C23.3203 25.5469 23.3724 25.4167 23.3984 25.1562C23.2943 24.2708 23.1901 23.8281 23.0859 23.8281ZM3.67188 21.7188L3.71094 21.7578C3.94531 21.7578 4.0625 21.3672 4.0625 20.5859V19.3359L4.02344 19.1016C3.89323 19.1016 3.77604 19.974 3.67188 21.7188ZM3.08594 7.53906L3.04688 7.57812V7.61719C3.15104 8.8151 3.26823 9.41406 3.39844 9.41406C3.5026 9.23177 3.55469 8.9974 3.55469 8.71094V8.39844C3.55469 7.85156 3.39844 7.5651 3.08594 7.53906ZM1.13281 27.6953L0.976562 27.8125V28.0078C0.976562 28.1901 1.13281 28.4115 1.44531 28.6719H1.52344C1.60156 28.6719 1.65365 28.5807 1.67969 28.3984C1.65365 27.9297 1.57552 27.6953 1.44531 27.6953H1.13281ZM21.7969 23.2031H21.6406C21.4583 23.6719 21.3672 24.0885 21.3672 24.4531C21.4453 24.7656 21.5365 24.9219 21.6406 24.9219H21.7188L21.7969 23.2812V23.2031ZM4.0625 7.07031H4.02344V7.30469C4.20573 8.26823 4.38802 8.75 4.57031 8.75H4.6875V8.59375L4.41406 7.92969C4.41406 7.53906 4.29688 7.2526 4.0625 7.07031ZM3.71094 24.5703V25.1953L3.86719 25.2734H3.94531L4.0625 24.4141L4.02344 24.1406H3.94531C3.84115 24.1406 3.76302 24.2839 3.71094 24.5703ZM4.29688 29.4531L4.0625 29.5703C4.24479 29.6745 4.46615 29.7266 4.72656 29.7266H4.84375L5.23438 29.6484V29.4922L4.29688 29.4531ZM19.2969 7.1875L19.3359 7.22656C19.4141 7.22656 19.5964 7.04427 19.8828 6.67969V6.44531H19.7656C19.5573 6.57552 19.401 6.82292 19.2969 7.1875ZM3.94531 17.7734H3.86719V18.125V18.1641C3.86719 18.5547 3.91927 18.75 4.02344 18.75L4.14062 18.3594C4.08854 17.9688 4.02344 17.7734 3.94531 17.7734ZM19.2578 28.125L19.1406 28.2812V28.4375L19.2188 28.5156L19.7656 28.3984V28.2812C19.7396 28.1771 19.6484 28.125 19.4922 28.125H19.2578ZM3.47656 12.9297H3.32031V13.9062L3.4375 13.9844H3.47656L3.55469 13.3594V13.2422L3.47656 12.9297ZM13.2812 17.0703H13.1641C13.0078 17.3047 12.9297 17.487 12.9297 17.6172V17.6953H13.0469C13.1771 17.6953 13.2552 17.526 13.2812 17.1875V17.0703ZM5.82031 29.6484H5.54688V29.7266L6.01562 29.8438H6.64062V29.7266L5.82031 29.6484ZM5.07812 6.64062L4.84375 6.67969V6.79688C4.84375 6.84896 4.94792 6.90104 5.15625 6.95312C5.3125 6.90104 5.39062 6.84896 5.39062 6.79688V6.71875L5.27344 6.64062H5.07812ZM18.8281 8.00781H18.9062H18.9453C19.1016 7.82552 19.1797 7.66927 19.1797 7.53906V7.46094H19.1406C18.9323 7.59115 18.8281 7.77344 18.8281 8.00781ZM19.4922 29.2578L19.2188 29.3359V29.4531L19.3359 29.4922H19.7656V29.4531C19.7135 29.3229 19.6224 29.2578 19.4922 29.2578ZM23.2422 25.9375H22.8906V26.0156L23.0859 26.25H23.1641L23.3594 26.0938V26.0156L23.2422 25.9375ZM6.40625 6.95312V6.99219H6.83594L6.875 6.95312V6.875L6.83594 6.79688C6.57552 6.79688 6.43229 6.84896 6.40625 6.95312ZM21.3672 12.9688V13.0859L21.4453 13.2031C21.5495 13.1771 21.6016 13.0859 21.6016 12.9297V12.6953H21.5234C21.4193 12.7214 21.3672 12.8125 21.3672 12.9688ZM5.23438 18.8281V18.9844L5.27344 19.4922H5.39062V19.2188C5.39062 18.9583 5.33854 18.8281 5.23438 18.8281ZM5.66406 26.3281L5.54688 26.4062L5.66406 26.5234H5.82031L5.89844 26.4062L5.82031 26.3281H5.66406ZM20.5859 25.9375H20.4688L20.4297 26.1719V26.25H20.5469L20.5859 26.1328V25.9375ZM22.1484 26.3672L21.9922 26.5234L22.0703 26.6406H22.3047V26.5234L22.1484 26.3672ZM21.3672 14.0625H21.2891V14.2188L21.3672 14.4531H21.4453V14.1797L21.3672 14.0625ZM21.5234 12.2656H21.6016C21.6797 12.2135 21.7188 12.0964 21.7188 11.9141C21.5885 11.9661 21.5234 12.0833 21.5234 12.2656ZM21.9141 21.3281H21.7969L21.7578 21.4453L21.9141 21.5625L21.9922 21.4453V21.4062L21.9141 21.3281ZM21.875 25.5469H21.6406V25.7031H21.7578L21.875 25.5859V25.5469ZM1.67969 29.2188H1.52344V29.3359L1.60156 29.4531L1.67969 29.375H1.71875L1.67969 29.2188ZM3.00781 6.67969H2.89062V6.79688L2.96875 6.875H3.00781V6.67969ZM3.67188 26.0938H3.59375V26.2891H3.71094V26.1719L3.67188 26.0938ZM34.8016 8.82812L39.6453 8.71094C40.062 8.71094 40.9344 8.89323 42.2625 9.25781C43.7729 10.6901 44.6714 11.8099 44.9578 12.6172C45.5307 13.2161 45.9865 14.401 46.325 16.1719C46.7417 16.5885 46.95 17.513 46.95 18.9453L46.9891 19.9219L46.8328 23.7891C46.8328 24.5703 47.3146 25.5339 48.2781 26.6797C49.1635 27.5391 49.7365 27.9688 49.9969 27.9688V28.0469C49.9969 28.3594 49.5411 28.8542 48.6297 29.5312C47.9526 30.2083 47.5229 30.5469 47.3406 30.5469H47.3016C46.8849 30.4948 45.8302 29.7266 44.1375 28.2422C41.0646 29.4401 39.5151 30.0521 39.4891 30.0781C38.4734 30.3906 37.3406 30.5469 36.0906 30.5469H35.8953C34.4891 30.3125 33.2911 29.7656 32.3016 28.9062C32.1193 28.75 31.7417 28.099 31.1688 26.9531C30.7 26.3802 30.4656 25.6771 30.4656 24.8438V23.7109C30.4656 22.9818 30.6609 22.3047 31.0516 21.6797C31.3901 20.612 31.976 19.5964 32.8094 18.6328C33.226 18.138 33.6427 17.8255 34.0594 17.6953C35.4135 16.9661 36.7547 16.6016 38.0828 16.6016L39.8406 16.5625H40.075C41.0646 16.5625 41.7677 16.7057 42.1844 16.9922H42.4188C42.549 16.9922 42.6141 16.9401 42.6141 16.8359C42.3276 15.612 41.8589 14.4401 41.2078 13.3203C40.6349 12.3568 39.5672 11.875 38.0047 11.875L36.4031 11.6406C35.0229 11.9271 34.3328 12.2135 34.3328 12.5C33.7859 13.2031 33.4604 14.0755 33.3563 15.1172C33.3042 15.2474 32.8354 15.3125 31.95 15.3125L31.7156 15.3906C31.6115 15.3906 31.4813 15.612 31.325 16.0547C30.5958 15.9505 30.2313 15.7943 30.2313 15.5859C30.2833 15.4297 30.3745 14.4922 30.5047 12.7734C30.9214 11.5755 31.9109 10.4688 33.4734 9.45312C34.2026 9.03646 34.6453 8.82812 34.8016 8.82812ZM39.1766 9.49219L39.0984 9.60938L39.2156 9.76562H39.45L39.4891 9.6875L39.3719 9.49219H39.1766ZM42.1453 9.80469H42.0672V9.88281C42.2755 10.0911 42.4578 10.1953 42.6141 10.1953H42.6531V10.1172C42.4448 9.90885 42.2755 9.80469 42.1453 9.80469ZM35.8953 10V10.1172C35.9214 10.1953 36.0516 10.2344 36.2859 10.2344C36.5203 10.2344 36.8458 10.1562 37.2625 10V9.84375H37.1063C36.5333 9.84375 36.1297 9.89583 35.8953 10ZM32.3797 11.25V11.3281H32.4188C32.6531 11.3281 33.0047 11.0807 33.4734 10.5859V10.4688H33.4344C33.174 10.4688 32.8224 10.7292 32.3797 11.25ZM37.8094 10.9766L37.6141 11.1328L37.7313 11.3281H38.2391L38.3563 11.2109L38.1219 10.9766H37.8094ZM32.0672 14.1406L31.95 14.2188V14.8047H31.9891C32.0932 14.7786 32.1453 14.6875 32.1453 14.5312V14.2188L32.0672 14.1406ZM46.2469 17.2656H46.2078V17.3438C46.2599 17.5521 46.312 17.6562 46.3641 17.6562L46.4031 17.4609C46.351 17.3307 46.299 17.2656 46.2469 17.2656ZM45.3484 18.6328L45.2313 18.7109V18.8281C45.3354 19.2188 45.4396 19.4141 45.5438 19.4141H45.6219C45.6219 19.0755 45.5438 18.8151 45.3875 18.6328H45.3484ZM33.9031 18.8672L33.4734 19.0625V19.2578H33.5516C33.7339 19.2578 33.8641 19.1536 33.9422 18.9453V18.8672H33.9031ZM33.4734 22.5781C33.6557 24.1406 33.8771 24.9219 34.1375 24.9219L34.5281 25.4297V25.4688L34.1766 25.4297V25.5469C34.6714 26.224 35.687 26.849 37.2234 27.4219C37.4057 27.526 37.6661 27.6042 38.0047 27.6562C38.4734 27.6562 40.2703 26.888 43.3953 25.3516C43.6036 25.2214 43.7078 25.0781 43.7078 24.9219V24.7266C43.4734 23.6589 43.2781 22.4089 43.1219 20.9766L43.0438 20.9375C43.0438 20.651 42.7573 20.4167 42.1844 20.2344C40.2573 19.6875 38.9422 19.4141 38.2391 19.4141C36.2599 19.8568 34.9057 20.5208 34.1766 21.4062C33.7078 21.875 33.4734 22.2656 33.4734 22.5781ZM45.2313 20.0391L45.1141 19.9609V20.0781H45.2313V20.0391ZM45.3875 20.7812H45.1531V20.9375L45.2703 21.0547L45.3875 20.9375V20.7812ZM44.1375 21.7578L44.0203 21.875L44.1375 22.0312L44.2938 21.9922V21.875L44.1766 21.7578H44.1375ZM45.5438 21.875H45.4266V21.9141C45.4786 22.9036 45.5828 23.3984 45.7391 23.3984L45.8172 23.3203V23.2422C45.8172 22.6953 45.726 22.2396 45.5438 21.875ZM44.0203 23.125L43.9813 23.1641V23.3984L44.0984 23.5547H44.1375L44.2938 23.3984V23.1641L44.1766 23.125H44.0203ZM47.3406 26.7969H47.2234V27.0312C47.3276 27.3698 47.4448 27.5391 47.575 27.5391H47.6922V27.4219C47.588 27.0052 47.4708 26.7969 47.3406 26.7969ZM32.9656 26.9141L32.8875 26.9922V27.0312L32.9656 27.1094H33.1609V27.0312L33.0438 26.9141H32.9656ZM46.1297 27.4219L46.0125 27.5391C46.0906 27.7214 46.1948 27.8385 46.325 27.8906H46.3641L46.5203 27.7344V27.6562L46.325 27.4219H46.1297ZM40.4656 27.9688V28.0469H40.6219C40.9865 28.0469 41.4682 27.8906 42.0672 27.5781V27.5391H41.9109C41.0255 27.6432 40.5438 27.7865 40.4656 27.9688ZM46.9891 28.0859L46.9109 28.2422V28.3203L47.0672 28.4766H47.2234L47.3406 28.3984V28.3203L47.1453 28.0859H46.9891ZM37.3406 28.3984L37.2234 28.5156C37.2755 28.6458 37.3797 28.7109 37.5359 28.7109C37.8224 28.6589 37.9656 28.5938 37.9656 28.5156V28.4766L37.8484 28.3984H37.3406ZM33.0828 28.9453L32.9656 29.1016C33.0698 29.3359 33.7208 29.6354 34.9188 30C35.3094 30.1823 35.8302 30.2734 36.4813 30.2734V30.2344C36.4813 30.1562 35.9865 30.013 34.9969 29.8047C34.424 29.6484 33.825 29.362 33.2 28.9453H33.0828ZM55.6188 0.820312L56.2047 0.664062L57.8453 1.09375L60.3844 0.976562C61.0354 0.976562 61.3609 1.17188 61.3609 1.5625C61.2047 2.55208 61.1266 3.86719 61.1266 5.50781V11.6406L61.0875 17.5391L61.1266 19.1016L60.9313 26.5234C61.8167 26.7578 63.1578 26.9271 64.9547 27.0312L64.9938 27.0703V27.6172C64.9938 27.7474 65.137 27.9557 65.4234 28.2422C65.137 28.8672 64.8115 29.7917 64.4469 31.0156L64.0953 31.2891H63.9781C63.8219 31.0547 63.4964 30.9375 63.0016 30.9375L56.5953 30.0781C54.6682 30.0781 53.7047 29.9609 53.7047 29.7266C54.0172 29.1016 54.2516 28.0859 54.4078 26.6797H54.4469V26.6406L54.8375 26.6797H55.2281C55.3583 26.6016 55.7359 26.4974 56.3609 26.3672C56.6214 26.4974 56.8167 26.5625 56.9469 26.5625H57.4156C57.676 26.5625 57.8063 26.3021 57.8063 25.7812C57.8583 25.1562 57.9885 22.3047 58.1969 17.2266C58.0146 15.6641 57.8583 11.3672 57.7281 4.33594C57.624 4.15365 57.4938 4.0625 57.3375 4.0625L55.5797 4.17969C55.2672 4.15365 55.1109 4.04948 55.1109 3.86719C55.2151 1.83594 55.3844 0.820312 55.6188 0.820312ZM56.0094 1.5625L55.775 1.64062V1.71875C55.775 1.95312 55.9052 2.07031 56.1656 2.07031H56.2828C56.5693 2.07031 56.8557 1.92708 57.1422 1.64062V1.5625H56.0094ZM58.0016 1.5625L57.9234 1.67969L58.2359 1.75781H58.6266L58.7828 1.64062V1.5625H58.0016ZM59.2516 3.08594V3.125L59.3688 3.24219H59.525C59.7594 3.08594 60.0458 2.92969 60.3844 2.77344C60.5146 2.5651 60.5797 2.40885 60.5797 2.30469L60.5016 2.22656H60.3844C60.15 2.22656 59.9156 2.36979 59.6813 2.65625C59.3948 2.73438 59.2516 2.8776 59.2516 3.08594ZM55.8141 2.46094L55.6188 2.65625V2.92969L55.775 3.08594H56.5563H56.8297V2.92969L56.1266 2.61719L55.8922 2.46094H55.8141ZM58.8609 5.625L58.7828 5.74219V5.89844L58.8609 6.01562H58.9391L58.9781 5.89844V5.74219L58.9391 5.625H58.8609ZM58.7828 7.8125L58.6656 7.92969V8.00781H58.8609V7.8125H58.7828ZM60.5016 10.5078H60.3844V10.5469L60.5406 10.7422H60.5797V10.625L60.5016 10.5078ZM60.5797 11.2109L60.4234 11.0938L60.3844 11.875V12.3438H60.4234C60.5276 12.3438 60.5797 12.1615 60.5797 11.7969V11.2109ZM58.5484 12.1094V12.2656L58.6266 12.3438L58.7047 12.2656V12.0703L58.6656 11.9922C58.6656 11.9661 58.7698 11.888 58.9781 11.7578V11.6406H58.8219C58.6396 11.7448 58.5484 11.901 58.5484 12.1094ZM60.5406 12.6172H60.3844V12.9297H60.4234L60.5406 12.8516V12.6172ZM59.0953 17.0703V17.1875H59.1734C59.3036 17.1875 59.3688 16.6536 59.3688 15.5859C59.3167 15.5859 59.2255 16.0807 59.0953 17.0703ZM59.9938 18.9062L59.9156 18.9844L59.8375 21.4453V24.7266L59.9156 26.25L59.9547 26.2891H60.2281C60.3323 26.2891 60.3844 26.1719 60.3844 25.9375C60.3583 21.25 60.2281 18.9062 59.9938 18.9062ZM58.3922 24.7266V24.8828C58.3922 25.0651 58.4443 25.1562 58.5484 25.1562L58.7047 24.9219V24.6484C58.6526 24.3359 58.6005 24.1797 58.5484 24.1797C58.4443 24.1797 58.3922 24.362 58.3922 24.7266ZM56.0484 27.2656L55.9703 27.3828C55.9703 27.5911 56.0615 27.6953 56.2438 27.6953H56.2828V27.3828L56.1656 27.2656H56.0484ZM63.7438 27.2656L63.5094 27.3047V27.3828C63.5354 27.5391 63.7568 27.6172 64.1734 27.6172L64.3688 27.4609V27.3047L64.1344 27.2656H63.7438ZM54.9156 27.3828L54.8375 27.5V27.6172L54.9938 27.6953L55.0719 27.5391L55.0328 27.3828H54.9156ZM56.8297 27.8125V27.8516L57.025 27.8906H57.2594L57.4156 27.8125V27.6953H57.1422H57.1031C56.9208 27.6953 56.8297 27.7344 56.8297 27.8125ZM63.9 28.4375L61.6734 28.3594V28.3984C61.6734 28.5547 62.1161 28.6458 63.0016 28.6719H64.0172L64.2906 28.5938V28.4766L63.9 28.4375ZM56.5563 28.4766L56.4391 28.6719L56.5172 28.7891H57.1031C57.5198 28.7891 57.7281 28.75 57.7281 28.6719V28.5938C57.4417 28.5156 57.0771 28.4766 56.6344 28.4766H56.5563ZM62.65 29.4531L62.8063 29.4922H63.5875C63.8219 29.4922 63.9521 29.4531 63.9781 29.375V29.2578L63.7438 29.2188H63.1578C62.8193 29.2448 62.65 29.3229 62.65 29.4531ZM54.4469 29.2578L54.3297 29.4531L54.4469 29.4922H54.6422L54.7594 29.4531L54.6031 29.2578H54.4469ZM63.7828 30.1953H63.5484V30.3516L63.7828 30.4297H63.9L64.1344 30.3516V30.1953H63.9H63.7828ZM71.1625 0.820312L71.7484 0.664062L73.3891 1.09375L75.9281 0.976562C76.5792 0.976562 76.9047 1.17188 76.9047 1.5625C76.7484 2.55208 76.6703 3.86719 76.6703 5.50781V11.6406L76.6312 17.5391L76.6703 19.1016L76.475 26.5234C77.3604 26.7578 78.7016 26.9271 80.4984 27.0312L80.5375 27.0703V27.6172C80.5375 27.7474 80.6807 27.9557 80.9672 28.2422C80.6807 28.8672 80.3552 29.7917 79.9906 31.0156L79.6391 31.2891H79.5219C79.3656 31.0547 79.0401 30.9375 78.5453 30.9375L72.1391 30.0781C70.212 30.0781 69.2484 29.9609 69.2484 29.7266C69.5609 29.1016 69.7953 28.0859 69.9516 26.6797H69.9906V26.6406L70.3812 26.6797H70.7719C70.9021 26.6016 71.2797 26.4974 71.9047 26.3672C72.1651 26.4974 72.3604 26.5625 72.4906 26.5625H72.9594C73.2198 26.5625 73.35 26.3021 73.35 25.7812C73.4021 25.1562 73.5323 22.3047 73.7406 17.2266C73.5583 15.6641 73.4021 11.3672 73.2719 4.33594C73.1677 4.15365 73.0375 4.0625 72.8812 4.0625L71.1234 4.17969C70.8109 4.15365 70.6547 4.04948 70.6547 3.86719C70.7589 1.83594 70.9281 0.820312 71.1625 0.820312ZM71.5531 1.5625L71.3187 1.64062V1.71875C71.3187 1.95312 71.449 2.07031 71.7094 2.07031H71.8266C72.113 2.07031 72.3995 1.92708 72.6859 1.64062V1.5625H71.5531ZM73.5453 1.5625L73.4672 1.67969L73.7797 1.75781H74.1703L74.3266 1.64062V1.5625H73.5453ZM74.7953 3.08594V3.125L74.9125 3.24219H75.0687C75.3031 3.08594 75.5896 2.92969 75.9281 2.77344C76.0583 2.5651 76.1234 2.40885 76.1234 2.30469L76.0453 2.22656H75.9281C75.6937 2.22656 75.4594 2.36979 75.225 2.65625C74.9385 2.73438 74.7953 2.8776 74.7953 3.08594ZM71.3578 2.46094L71.1625 2.65625V2.92969L71.3187 3.08594H72.1H72.3734V2.92969L71.6703 2.61719L71.4359 2.46094H71.3578ZM74.4047 5.625L74.3266 5.74219V5.89844L74.4047 6.01562H74.4828L74.5219 5.89844V5.74219L74.4828 5.625H74.4047ZM74.3266 7.8125L74.2094 7.92969V8.00781H74.4047V7.8125H74.3266ZM76.0453 10.5078H75.9281V10.5469L76.0844 10.7422H76.1234V10.625L76.0453 10.5078ZM76.1234 11.2109L75.9672 11.0938L75.9281 11.875V12.3438H75.9672C76.0714 12.3438 76.1234 12.1615 76.1234 11.7969V11.2109ZM74.0922 12.1094V12.2656L74.1703 12.3438L74.2484 12.2656V12.0703L74.2094 11.9922C74.2094 11.9661 74.3135 11.888 74.5219 11.7578V11.6406H74.3656C74.1833 11.7448 74.0922 11.901 74.0922 12.1094ZM76.0844 12.6172H75.9281V12.9297H75.9672L76.0844 12.8516V12.6172ZM74.6391 17.0703V17.1875H74.7172C74.8474 17.1875 74.9125 16.6536 74.9125 15.5859C74.8604 15.5859 74.7693 16.0807 74.6391 17.0703ZM75.5375 18.9062L75.4594 18.9844L75.3812 21.4453V24.7266L75.4594 26.25L75.4984 26.2891H75.7719C75.876 26.2891 75.9281 26.1719 75.9281 25.9375C75.9021 21.25 75.7719 18.9062 75.5375 18.9062ZM73.9359 24.7266V24.8828C73.9359 25.0651 73.988 25.1562 74.0922 25.1562L74.2484 24.9219V24.6484C74.1964 24.3359 74.1443 24.1797 74.0922 24.1797C73.988 24.1797 73.9359 24.362 73.9359 24.7266ZM71.5922 27.2656L71.5141 27.3828C71.5141 27.5911 71.6052 27.6953 71.7875 27.6953H71.8266V27.3828L71.7094 27.2656H71.5922ZM79.2875 27.2656L79.0531 27.3047V27.3828C79.0792 27.5391 79.3005 27.6172 79.7172 27.6172L79.9125 27.4609V27.3047L79.6781 27.2656H79.2875ZM70.4594 27.3828L70.3812 27.5V27.6172L70.5375 27.6953L70.6156 27.5391L70.5766 27.3828H70.4594ZM72.3734 27.8125V27.8516L72.5687 27.8906H72.8031L72.9594 27.8125V27.6953H72.6859H72.6469C72.4646 27.6953 72.3734 27.7344 72.3734 27.8125ZM79.4437 28.4375L77.2172 28.3594V28.3984C77.2172 28.5547 77.6599 28.6458 78.5453 28.6719H79.5609L79.8344 28.5938V28.4766L79.4437 28.4375ZM72.1 28.4766L71.9828 28.6719L72.0609 28.7891H72.6469C73.0635 28.7891 73.2719 28.75 73.2719 28.6719V28.5938C72.9854 28.5156 72.6208 28.4766 72.1781 28.4766H72.1ZM78.1937 29.4531L78.35 29.4922H79.1312C79.3656 29.4922 79.4958 29.4531 79.5219 29.375V29.2578L79.2875 29.2188H78.7016C78.363 29.2448 78.1937 29.3229 78.1937 29.4531ZM69.9906 29.2578L69.8734 29.4531L69.9906 29.4922H70.1859L70.3031 29.4531L70.1469 29.2578H69.9906ZM79.3266 30.1953H79.0922V30.3516L79.3266 30.4297H79.4437L79.6781 30.3516V30.1953H79.4437H79.3266ZM89.9875 8.82812L94.8313 8.71094C95.2479 8.71094 96.1203 8.89323 97.4484 9.25781C98.9589 10.6901 99.8573 11.8099 100.144 12.6172C100.717 13.2161 101.172 14.401 101.511 16.1719C101.928 16.5885 102.136 17.513 102.136 18.9453L102.175 19.9219L102.019 23.7891C102.019 24.5703 102.501 25.5339 103.464 26.6797C104.349 27.5391 104.922 27.9688 105.183 27.9688V28.0469C105.183 28.3594 104.727 28.8542 103.816 29.5312C103.139 30.2083 102.709 30.5469 102.527 30.5469H102.488C102.071 30.4948 101.016 29.7266 99.3234 28.2422C96.2505 29.4401 94.701 30.0521 94.675 30.0781C93.6594 30.3906 92.5266 30.5469 91.2766 30.5469H91.0813C89.675 30.3125 88.4771 29.7656 87.4875 28.9062C87.3052 28.75 86.9276 28.099 86.3547 26.9531C85.8859 26.3802 85.6516 25.6771 85.6516 24.8438V23.7109C85.6516 22.9818 85.8469 22.3047 86.2375 21.6797C86.576 20.612 87.162 19.5964 87.9953 18.6328C88.412 18.138 88.8286 17.8255 89.2453 17.6953C90.5995 16.9661 91.9406 16.6016 93.2688 16.6016L95.0266 16.5625H95.2609C96.2505 16.5625 96.9536 16.7057 97.3703 16.9922H97.6047C97.7349 16.9922 97.8 16.9401 97.8 16.8359C97.5135 15.612 97.0448 14.4401 96.3938 13.3203C95.8208 12.3568 94.7531 11.875 93.1906 11.875L91.5891 11.6406C90.2089 11.9271 89.5188 12.2135 89.5188 12.5C88.9719 13.2031 88.6464 14.0755 88.5422 15.1172C88.4901 15.2474 88.0214 15.3125 87.1359 15.3125L86.9016 15.3906C86.7974 15.3906 86.6672 15.612 86.5109 16.0547C85.7818 15.9505 85.4172 15.7943 85.4172 15.5859C85.4693 15.4297 85.5604 14.4922 85.6906 12.7734C86.1073 11.5755 87.0969 10.4688 88.6594 9.45312C89.3885 9.03646 89.8313 8.82812 89.9875 8.82812ZM94.3625 9.49219L94.2844 9.60938L94.4016 9.76562H94.6359L94.675 9.6875L94.5578 9.49219H94.3625ZM97.3313 9.80469H97.2531V9.88281C97.4615 10.0911 97.6438 10.1953 97.8 10.1953H97.8391V10.1172C97.6307 9.90885 97.4615 9.80469 97.3313 9.80469ZM91.0813 10V10.1172C91.1073 10.1953 91.2375 10.2344 91.4719 10.2344C91.7063 10.2344 92.0318 10.1562 92.4484 10V9.84375H92.2922C91.7193 9.84375 91.3156 9.89583 91.0813 10ZM87.5656 11.25V11.3281H87.6047C87.8391 11.3281 88.1906 11.0807 88.6594 10.5859V10.4688H88.6203C88.3599 10.4688 88.0083 10.7292 87.5656 11.25ZM92.9953 10.9766L92.8 11.1328L92.9172 11.3281H93.425L93.5422 11.2109L93.3078 10.9766H92.9953ZM87.2531 14.1406L87.1359 14.2188V14.8047H87.175C87.2792 14.7786 87.3313 14.6875 87.3313 14.5312V14.2188L87.2531 14.1406ZM101.433 17.2656H101.394V17.3438C101.446 17.5521 101.498 17.6562 101.55 17.6562L101.589 17.4609C101.537 17.3307 101.485 17.2656 101.433 17.2656ZM100.534 18.6328L100.417 18.7109V18.8281C100.521 19.2188 100.626 19.4141 100.73 19.4141H100.808C100.808 19.0755 100.73 18.8151 100.573 18.6328H100.534ZM89.0891 18.8672L88.6594 19.0625V19.2578H88.7375C88.9198 19.2578 89.05 19.1536 89.1281 18.9453V18.8672H89.0891ZM88.6594 22.5781C88.8417 24.1406 89.063 24.9219 89.3234 24.9219L89.7141 25.4297V25.4688L89.3625 25.4297V25.5469C89.8573 26.224 90.8729 26.849 92.4094 27.4219C92.5917 27.526 92.8521 27.6042 93.1906 27.6562C93.6594 27.6562 95.4563 26.888 98.5813 25.3516C98.7896 25.2214 98.8938 25.0781 98.8938 24.9219V24.7266C98.6594 23.6589 98.4641 22.4089 98.3078 20.9766L98.2297 20.9375C98.2297 20.651 97.9432 20.4167 97.3703 20.2344C95.4432 19.6875 94.1281 19.4141 93.425 19.4141C91.4458 19.8568 90.0917 20.5208 89.3625 21.4062C88.8938 21.875 88.6594 22.2656 88.6594 22.5781ZM100.417 20.0391L100.3 19.9609V20.0781H100.417V20.0391ZM100.573 20.7812H100.339V20.9375L100.456 21.0547L100.573 20.9375V20.7812ZM99.3234 21.7578L99.2063 21.875L99.3234 22.0312L99.4797 21.9922V21.875L99.3625 21.7578H99.3234ZM100.73 21.875H100.613V21.9141C100.665 22.9036 100.769 23.3984 100.925 23.3984L101.003 23.3203V23.2422C101.003 22.6953 100.912 22.2396 100.73 21.875ZM99.2063 23.125L99.1672 23.1641V23.3984L99.2844 23.5547H99.3234L99.4797 23.3984V23.1641L99.3625 23.125H99.2063ZM102.527 26.7969H102.409V27.0312C102.514 27.3698 102.631 27.5391 102.761 27.5391H102.878V27.4219C102.774 27.0052 102.657 26.7969 102.527 26.7969ZM88.1516 26.9141L88.0734 26.9922V27.0312L88.1516 27.1094H88.3469V27.0312L88.2297 26.9141H88.1516ZM101.316 27.4219L101.198 27.5391C101.277 27.7214 101.381 27.8385 101.511 27.8906H101.55L101.706 27.7344V27.6562L101.511 27.4219H101.316ZM95.6516 27.9688V28.0469H95.8078C96.1724 28.0469 96.6542 27.8906 97.2531 27.5781V27.5391H97.0969C96.2115 27.6432 95.7297 27.7865 95.6516 27.9688ZM102.175 28.0859L102.097 28.2422V28.3203L102.253 28.4766H102.409L102.527 28.3984V28.3203L102.331 28.0859H102.175ZM92.5266 28.3984L92.4094 28.5156C92.4615 28.6458 92.5656 28.7109 92.7219 28.7109C93.0083 28.6589 93.1516 28.5938 93.1516 28.5156V28.4766L93.0344 28.3984H92.5266ZM88.2688 28.9453L88.1516 29.1016C88.2557 29.3359 88.9068 29.6354 90.1047 30C90.4953 30.1823 91.0161 30.2734 91.6672 30.2734V30.2344C91.6672 30.1562 91.1724 30.013 90.1828 29.8047C89.6099 29.6484 89.0109 29.362 88.3859 28.9453H88.2688ZM117.367 9.57031H118.656C119.281 9.57031 120.297 9.84375 121.703 10.3906C122.224 10.3906 123.044 10.7161 124.164 11.3672H124.359C124.646 11.3672 125.271 10.8464 126.234 9.80469C126.443 9.80469 126.833 10.1693 127.406 10.8984C127.667 11.0026 127.966 11.25 128.305 11.6406V11.7578C126.846 13.3724 126.117 14.2708 126.117 14.4531C125.414 16.8229 124.945 18.138 124.711 18.3984C124.216 18.9193 123.513 19.375 122.602 19.7656C121.456 20.9115 120.427 21.4844 119.516 21.4844L118.344 21.5234L115.805 21.2891H115.297C115.089 21.2891 114.815 22.1484 114.477 23.8672L114.789 23.9453H114.906C115.323 23.9453 115.779 23.7891 116.273 23.4766L117.172 23.3984H118.734C121.234 23.3984 123.292 23.6328 124.906 24.1016C125.141 24.2578 125.714 24.5443 126.625 24.9609L127.953 25.9375C128.995 26.8229 129.646 27.6172 129.906 28.3203C130.844 30.1432 131.312 31.6927 131.312 32.9688C131.312 33.9323 130.557 35.1302 129.047 36.5625L126.664 38.2812C125.414 39.0625 123.93 39.4531 122.211 39.4531L121.117 39.6094C116.482 39.6094 113.344 38.6719 111.703 36.7969C110.505 36.0677 109.906 35.1172 109.906 33.9453C109.464 33.112 109.242 32.0182 109.242 30.6641L109.086 29.8047L109.242 29.2969H109.359C109.49 29.8958 109.594 30.1953 109.672 30.1953H109.789C110.154 28.5547 110.44 27.4609 110.648 26.9141V26.8359H110.609C109.854 28.0599 109.477 28.763 109.477 28.9453H109.398C109.294 28.9453 109.242 28.8021 109.242 28.5156C109.268 27.9948 109.737 27.0964 110.648 25.8203C111.664 24.8568 112.172 24.3099 112.172 24.1797C112.432 22.0182 112.628 20.6771 112.758 20.1562C112.081 18.8542 111.742 17.7865 111.742 16.9531L111.703 16.2891C111.703 15.8464 111.872 15.0391 112.211 13.8672C112.497 13.5807 113.044 12.8776 113.852 11.7578C115.232 10.2995 116.404 9.57031 117.367 9.57031ZM115.922 10.5469V10.5859C116.833 10.3516 117.289 10.1562 117.289 10V9.96094H117.172C116.807 9.96094 116.391 10.1562 115.922 10.5469ZM126.352 10.7031L126.234 10.8203V10.8594C126.286 10.9375 126.378 10.9766 126.508 10.9766H126.742V10.8984L126.469 10.7031H126.352ZM116.898 11.3672V11.5234H116.977L118.148 11.0938V10.8984H117.797C117.198 11.0286 116.898 11.1849 116.898 11.3672ZM114.555 15.3906V15.5859C114.971 17.5651 115.271 18.5547 115.453 18.5547C116.052 19.1276 116.573 19.4141 117.016 19.4141C118.995 19.4141 120.414 18.9714 121.273 18.0859C121.924 17.487 122.393 16.862 122.68 16.2109C122.888 15.8464 122.992 15.5729 122.992 15.3906V14.7656C122.992 14.349 122.68 13.724 122.055 12.8906C120.648 12.2656 119.672 11.9531 119.125 11.9531C117.901 11.9531 116.716 12.487 115.57 13.5547C114.893 14.388 114.555 15 114.555 15.3906ZM126.039 13.0469V13.2812H126.117C126.664 12.8125 127.042 12.4089 127.25 12.0703V11.9531H127.211C126.924 11.9531 126.534 12.3177 126.039 13.0469ZM114.984 12.9688L115.141 13.0078C115.297 13.0078 115.505 12.8385 115.766 12.5V12.3438H115.531C115.167 12.5521 114.984 12.7604 114.984 12.9688ZM123.578 12.6172H123.383V12.6562C123.565 13.151 123.786 13.3984 124.047 13.3984C124.125 13.3984 124.164 13.3594 124.164 13.2812C124.164 13.099 123.969 12.8776 123.578 12.6172ZM112.602 14.7266H112.719C112.797 14.6745 113.005 14.4141 113.344 13.9453L113.227 13.8672C113.07 13.8672 112.862 14.1536 112.602 14.7266ZM112.094 15.8984C112.094 16.4714 112.224 16.901 112.484 17.1875H112.641C112.719 17.1875 112.758 17.1484 112.758 17.0703C112.654 15.9766 112.523 15.4297 112.367 15.4297C112.237 15.4297 112.146 15.5859 112.094 15.8984ZM122.328 18.0469V18.0859H122.562C123.031 18.0859 123.331 17.5521 123.461 16.4844V16.2891L123.422 16.2109H123.305C122.654 17.2526 122.328 17.8646 122.328 18.0469ZM114.086 16.3672L114.008 16.4844C114.008 16.9271 114.151 17.3307 114.438 17.6953H114.477V17.5391C114.424 16.862 114.294 16.4714 114.086 16.3672ZM124.359 17.8906H124.242L124.125 18.0859V18.125H124.242C124.268 18.125 124.307 18.0469 124.359 17.8906ZM121.547 18.9453H121.664C121.977 18.8151 122.224 18.6328 122.406 18.3984L122.289 18.2422C121.846 18.5547 121.599 18.7891 121.547 18.9453ZM119.906 19.4141V19.5312L120.141 19.6875H120.297C120.427 19.6875 120.688 19.4922 121.078 19.1016V19.0234H120.727C120.414 19.0234 120.141 19.1536 119.906 19.4141ZM112.797 19.2578H112.641V19.375C112.901 19.7917 113.292 20.0781 113.812 20.2344V20.1562C113.578 19.5573 113.24 19.2578 112.797 19.2578ZM121.43 19.2578L121.273 19.4141V19.5703H121.352L121.664 19.2969V19.2578H121.43ZM114.398 19.5312L114.281 19.6484C114.385 19.9089 114.555 20.0391 114.789 20.0391L114.984 19.8047C114.984 19.7005 114.789 19.6094 114.398 19.5312ZM119.086 19.6875L118.93 19.8438C118.93 19.8958 119.151 19.9479 119.594 20L119.906 19.9609C119.906 19.8568 119.737 19.7656 119.398 19.6875H119.086ZM115.258 20L115.219 20.0391V20.3516L115.375 20.5078H116.039V20.3516C115.596 20.1172 115.336 20 115.258 20ZM116.586 20.4297L116.43 20.5469C116.43 20.7812 116.859 20.8984 117.719 20.8984H118.852C119.008 20.8984 119.099 20.8464 119.125 20.7422C118.578 20.5339 117.862 20.4297 116.977 20.4297H116.586ZM113.734 20.8984L113.539 21.0547V21.3672C113.539 21.5755 113.643 21.7057 113.852 21.7578L114.008 21.6406V21.0156L113.852 20.8984H113.734ZM119.789 24.0234L118.93 24.1797V24.2188C118.93 24.4531 120.271 24.6094 122.953 24.6875L123.773 24.9609H123.852C123.93 24.9609 124.034 24.9219 124.164 24.8438L125.297 24.8828V24.7656C125.167 24.5573 124.867 24.4531 124.398 24.4531H124.008C123.878 24.4531 123.76 24.4922 123.656 24.5703L122.719 24.1797C122.172 24.0755 121.326 24.0234 120.18 24.0234H119.789ZM116.82 24.1797H116.664H116.82ZM114.672 25.2734C114.672 25.3255 115.089 25.3776 115.922 25.4297C116.26 25.4036 116.43 25.3516 116.43 25.2734C116.299 25.0651 116.143 24.9219 115.961 24.8438H115.531C114.958 24.9219 114.672 25.0651 114.672 25.2734ZM121.352 25.4297H121.312V25.4688C121.312 25.5729 121.625 25.638 122.25 25.6641L122.289 25.625V25.5469L121.352 25.4297ZM125.102 25.4297L124.984 25.5859L125.102 25.6641L125.258 25.625V25.4297H125.102ZM112.953 25.9375L113.148 26.0547H113.422L113.578 25.8594V25.625L113.461 25.4688C113.201 25.4688 113.031 25.625 112.953 25.9375ZM111.352 26.6797V26.7188L111.469 26.8359C112.094 26.6797 112.406 26.4714 112.406 26.2109V25.9375L112.328 25.8203C111.99 25.9505 111.664 26.237 111.352 26.6797ZM125.648 25.9766H125.609C125.609 26.1589 125.909 26.3151 126.508 26.4453L126.664 26.4062V26.3281C126.482 26.0938 126.195 25.9766 125.805 25.9766H125.688H125.648ZM115.766 26.0547L115.57 26.2109L115.688 26.3281H115.961V26.1328L115.844 26.0547H115.766ZM121.273 26.1328L121.078 26.3281C121.078 26.4323 121.729 26.5234 123.031 26.6016C124.099 26.9141 125.023 27.3438 125.805 27.8906L126.352 27.9297L126.508 27.7734V27.7344C126.326 27.3698 125.492 26.9661 124.008 26.5234C122.628 26.263 121.716 26.1328 121.273 26.1328ZM118.734 26.6797V26.7969L118.109 26.9141L117.289 26.7969L114.398 26.8359C113.201 27.9297 112.602 28.6979 112.602 29.1406L112.367 29.4141V29.4922C112.549 32.0964 112.81 33.7109 113.148 34.3359C113.174 34.4661 113.643 34.8568 114.555 35.5078C114.555 35.6901 115.336 36.0026 116.898 36.4453C119.19 36.7839 121.091 36.9531 122.602 36.9531C124.555 36.5885 125.883 36.0417 126.586 35.3125C127.862 34.0104 128.5 32.9427 128.5 32.1094V31.9141C128.5 31.4714 127.992 30.599 126.977 29.2969C126.846 28.9323 126.456 28.5807 125.805 28.2422C124.659 27.487 123.5 27.0182 122.328 26.8359L119.906 26.7969V26.5625V26.5234H119.438C119.073 26.5234 118.839 26.5755 118.734 26.6797ZM127.133 26.7188H126.859V26.7969L128.383 28.1641H128.461V28.0859C128.096 27.3568 127.654 26.901 127.133 26.7188ZM112.602 27.5391V27.6562H112.719L113.188 27.5V27.3438H113.109C112.771 27.3698 112.602 27.4349 112.602 27.5391ZM112.055 27.9297V28.0859H112.172L112.406 27.8125V27.6953C112.25 27.6953 112.133 27.7734 112.055 27.9297ZM111 28.9062L111.039 29.1016H111.117C111.247 29.1016 111.404 28.7109 111.586 27.9297H111.508C111.169 28.1901 111 28.5156 111 28.9062ZM126.82 28.0859H126.664C126.664 28.2161 127.042 28.737 127.797 29.6484V29.6875H127.875V29.5312C127.536 28.5677 127.185 28.0859 126.82 28.0859ZM130.336 30.9766H130.18V31.0547L130.297 31.2109L130.336 31.1328V30.9766ZM129.438 31.25H129.242V31.3281L129.359 31.4844H129.438L129.594 31.3281L129.438 31.25ZM109.672 31.6016L109.594 31.6406V31.9141L109.75 32.0312H109.789V31.6016H109.672ZM130.062 32.3438V32.4219C130.062 32.6562 130.115 32.7865 130.219 32.8125H130.297C130.505 32.4479 130.609 32.0573 130.609 31.6406L130.57 31.6016H130.453C130.193 31.7839 130.062 32.0312 130.062 32.3438ZM111.898 31.7188L111.82 31.8359L111.742 32.6172C111.768 33.1641 111.846 33.4375 111.977 33.4375H112.055C112.133 33.3854 112.172 33.2943 112.172 33.1641V32.6562C112.172 32.0312 112.107 31.7188 111.977 31.7188H111.898ZM109.867 32.3047H109.789V32.4219C109.815 32.6042 109.867 32.6953 109.945 32.6953L110.062 32.6172V32.5L109.867 32.3047ZM127.602 35V35.0781L127.719 35.1562C128.37 34.974 128.695 34.6354 128.695 34.1406V33.8672H128.578C127.927 34.362 127.602 34.7396 127.602 35ZM111.508 34.8047L111.352 35C111.43 35.1823 111.508 35.2734 111.586 35.2734L111.742 35.0781C111.742 34.974 111.664 34.8828 111.508 34.8047ZM113.109 35.5469H113.031V35.6641L113.188 35.8203H113.422V35.7031C113.396 35.599 113.292 35.5469 113.109 35.5469ZM112.562 35.8203L112.445 35.9766V36.0547H112.797V35.8203H112.562ZM122.445 37.6562C119.242 37.4479 117.432 37.2656 117.016 37.1094L115.961 37.0312V37.1094C116.299 37.3698 116.742 37.5391 117.289 37.6172L118.461 37.5781L118.734 37.7734L118.773 37.7344H118.852C119.555 37.8646 120.297 37.9297 121.078 37.9297H121.938C123.083 37.9297 123.878 37.7865 124.32 37.5C125.414 37.1094 125.961 36.888 125.961 36.8359V36.7969C124.346 37.1354 123.174 37.4219 122.445 37.6562ZM124.242 38.9453H124.359C124.568 38.9453 125.206 38.6328 126.273 38.0078V37.9297H126.117C124.867 38.2161 124.242 38.5547 124.242 38.9453ZM123.148 38.7891V38.8672H123.305C123.773 38.7891 124.008 38.6328 124.008 38.3984H123.852C123.487 38.5286 123.253 38.6589 123.148 38.7891ZM117.367 38.6328L117.172 38.4766L117.133 38.5156V38.5547L117.289 38.6328H117.367ZM117.953 38.75H117.797V38.7891C117.823 38.8932 117.966 38.9453 118.227 38.9453H118.656C118.656 38.8151 118.422 38.75 117.953 38.75ZM121.117 38.75L121.039 38.8672V38.9453C121.065 39.0495 121.156 39.1016 121.312 39.1016H121.547L122.055 38.9844V38.8672L121.352 38.75H121.117ZM136.075 1.40625L136.856 1.36719C140.19 1.4974 141.856 1.79688 141.856 2.26562L142.13 8.00781C142.13 8.52865 141.843 9.84375 141.27 11.9531C141.14 12.7865 141.075 13.3333 141.075 13.5938V13.8281H141.192C142.937 12.474 144.929 11.7969 147.169 11.7969C147.82 11.7969 149.018 12.1745 150.762 12.9297C151.101 13.1901 151.531 13.724 152.052 14.5312C152.234 14.6354 152.351 14.8047 152.403 15.0391L152.364 15.4297C153.093 16.0026 153.458 17.0312 153.458 18.5156C153.536 18.5156 153.601 19.7917 153.653 22.3438V22.4219C153.653 22.8906 153.445 24.3229 153.028 26.7188L152.872 27.4609H153.692C154.552 27.487 154.981 27.6042 154.981 27.8125C154.981 27.9167 154.565 28.0078 153.731 28.0859C153.731 28.1901 154.031 28.3073 154.63 28.4375L154.786 28.6719V28.75C154.291 28.8281 154.044 28.8932 154.044 28.9453C154.539 29.0495 154.786 29.2188 154.786 29.4531C154.786 30.6771 154.434 31.2891 153.731 31.2891L153.419 31.3281C152.403 31.3281 151.895 31.1849 151.895 30.8984C151.895 30.8203 151.361 30.7552 150.294 30.7031C149.825 30.4427 149.447 30.2734 149.161 30.1953L149.122 30.0391C149.122 28.8932 149.291 27.2266 149.63 25.0391C149.76 23.763 149.994 22.4089 150.333 20.9766L150.255 19.6094L150.372 19.4141C150.033 19.1536 149.864 18.776 149.864 18.2812C149.552 17.7344 149.291 17.3047 149.083 16.9922C148.171 16.6016 147.624 16.4062 147.442 16.4062C146.114 15.9635 144.812 16.0156 143.536 16.5625C141.843 17.7083 140.997 18.5547 140.997 19.1016L140.762 21.6406L140.841 24.2578C140.684 26.1849 140.489 27.1484 140.255 27.1484L140.216 27.3438L140.372 27.3828H140.528L141.192 27.1094C141.817 27.2135 142.13 27.4219 142.13 27.7344L141.856 27.9688V28.125C141.882 28.2031 142.052 28.2943 142.364 28.3984L142.442 28.5938C142.286 29.9479 142.091 30.625 141.856 30.625H141.739C141.401 30.3906 140.007 30.2083 137.559 30.0781C135.815 29.9219 134.942 29.6615 134.942 29.2969V28.6719C134.916 28.5677 134.994 28.3724 135.177 28.0859V27.8516C134.864 27.4089 134.708 27.1484 134.708 27.0703C134.838 26.9661 135.463 26.901 136.583 26.875C136.765 26.875 136.895 26.3672 136.973 25.3516C137.156 25.2474 137.312 24.8438 137.442 24.1406C137.598 23.9323 137.677 23.7109 137.677 23.4766V23.4375C137.677 23.0208 137.546 22.6042 137.286 22.1875L137.677 21.25C137.859 21.25 137.963 18.3984 137.989 12.6953L138.536 6.95312V5.23438C138.536 4.66146 138.354 4.375 137.989 4.375L136.7 4.33594L135.88 4.57031C135.749 4.57031 135.658 4.21875 135.606 3.51562V3.125C135.606 1.97917 135.762 1.40625 136.075 1.40625ZM135.997 29.2188V29.2969H136.075C136.414 29.2969 137.052 29.4661 137.989 29.8047C139.421 29.8307 140.554 29.9219 141.387 30.0781H141.505L141.622 29.9219V29.8828C141.622 29.6224 140.385 29.4922 137.911 29.4922C137.494 29.2318 136.973 29.1016 136.348 29.1016C136.114 29.1276 135.997 29.1667 135.997 29.2188ZM152.169 25.7031H152.286C152.468 25.7031 152.716 24.7266 153.028 22.7734C153.028 22.487 152.937 22.3047 152.755 22.2266H152.598C152.442 22.2266 152.299 23.3854 152.169 25.7031ZM150.997 17.5781L151.231 16.9531C151.335 17.1615 151.401 17.3177 151.427 17.4219C151.531 17.6042 151.635 17.6953 151.739 17.6953V17.3828C151.739 16.862 151.374 16.25 150.645 15.5469L150.45 15.5078H150.294V15.6641C150.658 16.0286 150.958 16.4193 151.192 16.8359L150.841 17.4219L150.997 17.5781ZM139.395 8.24219C139.317 8.39844 139.278 8.86719 139.278 9.64844C139.591 9.64844 139.747 9.88281 139.747 10.3516H139.786C139.864 10.1953 139.903 9.92188 139.903 9.53125V9.02344H139.864L139.708 9.45312H139.552L139.512 9.21875C139.565 9.01042 139.617 8.90625 139.669 8.90625L139.903 8.98438C139.851 8.82812 139.682 8.58073 139.395 8.24219ZM137.403 26.7578C137.403 26.9401 137.833 27.0703 138.692 27.1484H138.77L138.887 27.0703V26.7578C138.835 26.6797 138.731 26.6406 138.575 26.6406H137.794C137.533 26.6406 137.403 26.6797 137.403 26.7578ZM149.786 28.75H149.864L150.255 28.7891L151.466 28.75L151.505 28.7109V28.6719C151.244 28.4896 150.828 28.3984 150.255 28.3984C150.02 28.3984 149.864 28.5156 149.786 28.75ZM135.567 27.9688V28.0859H135.841H137.208C137.208 27.8776 136.804 27.7604 135.997 27.7344C135.736 27.7344 135.593 27.8125 135.567 27.9688ZM146.7 15.0781L146.427 15.1172V15.3125C146.999 15.599 147.364 15.7422 147.52 15.7422L147.677 15.5469C147.677 15.3906 147.351 15.2344 146.7 15.0781ZM136.934 1.95312V2.07031C137.247 2.30469 137.69 2.42188 138.262 2.42188L138.341 2.26562C137.794 2.05729 137.325 1.95312 136.934 1.95312ZM140.255 17.5391V17.8516H140.372C140.632 17.8516 140.802 17.6172 140.88 17.1484L140.919 17.1094V16.9141H140.88C140.697 17.0182 140.489 17.2266 140.255 17.5391ZM140.645 2.14844L140.489 2.34375C140.567 2.47396 140.684 2.57812 140.841 2.65625H140.88C141.062 2.65625 141.179 2.59115 141.231 2.46094V2.38281L141.075 2.14844H140.645ZM149.981 29.7266H149.552V29.8438C149.578 30 149.747 30.0781 150.059 30.0781H150.45V29.9609C150.45 29.8828 150.294 29.8047 149.981 29.7266ZM140.919 28.0859L140.841 28.125V28.3203L141.075 28.5156H141.27L141.466 28.3594V28.3203L141.192 28.0859H140.919ZM137.716 3.35938L137.52 3.39844V3.47656C137.546 3.55469 137.637 3.59375 137.794 3.59375H138.106L138.341 3.51562V3.39844L138.106 3.35938H137.716ZM150.606 27.3828V27.5391H150.919L151.036 27.4609V27.2656L150.919 27.1484C150.762 27.1484 150.658 27.2266 150.606 27.3828ZM140.684 18.2422L140.802 18.3594H141.075C141.231 18.3594 141.322 18.3203 141.348 18.2422L141.231 18.125H141.075C140.867 18.125 140.736 18.1641 140.684 18.2422ZM149.63 13.0859V13.2031C149.734 13.3854 149.929 13.4766 150.216 13.4766V13.3594C150.111 13.1771 149.916 13.0859 149.63 13.0859ZM148.927 16.0547V16.1328C148.927 16.3672 149.057 16.4844 149.317 16.4844V16.4453C149.291 16.1849 149.161 16.0547 148.927 16.0547ZM139.786 5.89844L139.708 6.01562V6.28906L139.786 6.40625L139.942 6.28906V6.05469L139.786 5.89844ZM137.403 2.73438H137.286V2.77344L137.325 2.92969H137.833V2.77344L137.403 2.73438ZM142.208 15.4297H142.325C142.611 15.2214 142.755 15.0911 142.755 15.0391H142.637C142.377 15.1693 142.234 15.2995 142.208 15.4297ZM152.598 16.5234L152.481 16.6406V16.7188L152.716 16.875H152.794L152.872 16.7969L152.677 16.5234H152.598ZM147.559 12.2266H147.52V12.2656C147.52 12.3438 147.69 12.4219 148.028 12.5V12.4609C148.028 12.3307 147.872 12.2526 147.559 12.2266ZM139.747 7.07031L139.669 7.1875V7.30469L139.786 7.42188L139.942 7.38281V7.26562L139.786 7.07031H139.747ZM145.684 14.3359H145.411V14.4141L145.528 14.5312H145.802V14.4531L145.684 14.3359ZM143.887 16.1328L143.731 16.2891V16.4062H143.848L144.005 16.25V16.1328H143.887ZM149.864 29.1797L149.747 29.2969V29.3359L149.864 29.4531H149.942L149.981 29.2969L149.864 29.1797ZM136.348 2.46094H136.309V2.77344H136.348L136.466 2.65625V2.53906L136.348 2.46094ZM152.872 21.5625L152.755 21.6406L152.872 21.7578H152.95V21.6406L152.872 21.5625ZM141.231 27.6172H141.075V27.7344H141.231V27.6172ZM145.997 15.5078L145.919 15.5859H146.075V15.5078H145.997ZM151.27 16.8359L151.231 16.9141C151.179 16.9141 151.179 16.888 151.231 16.8359L151.27 16.7969V16.8359ZM164.041 8.82812L168.884 8.71094C169.301 8.71094 170.173 8.89323 171.502 9.25781C173.012 10.6901 173.91 11.8099 174.197 12.6172C174.77 13.2161 175.226 14.401 175.564 16.1719C175.981 16.5885 176.189 17.513 176.189 18.9453L176.228 19.9219L176.072 23.7891C176.072 24.5703 176.554 25.5339 177.517 26.6797C178.403 27.5391 178.976 27.9688 179.236 27.9688V28.0469C179.236 28.3594 178.78 28.8542 177.869 29.5312C177.192 30.2083 176.762 30.5469 176.58 30.5469H176.541C176.124 30.4948 175.069 29.7266 173.377 28.2422C170.304 29.4401 168.754 30.0521 168.728 30.0781C167.712 30.3906 166.58 30.5469 165.33 30.5469H165.134C163.728 30.3125 162.53 29.7656 161.541 28.9062C161.358 28.75 160.981 28.099 160.408 26.9531C159.939 26.3802 159.705 25.6771 159.705 24.8438V23.7109C159.705 22.9818 159.9 22.3047 160.291 21.6797C160.629 20.612 161.215 19.5964 162.048 18.6328C162.465 18.138 162.882 17.8255 163.298 17.6953C164.653 16.9661 165.994 16.6016 167.322 16.6016L169.08 16.5625H169.314C170.304 16.5625 171.007 16.7057 171.423 16.9922H171.658C171.788 16.9922 171.853 16.9401 171.853 16.8359C171.567 15.612 171.098 14.4401 170.447 13.3203C169.874 12.3568 168.806 11.875 167.244 11.875L165.642 11.6406C164.262 11.9271 163.572 12.2135 163.572 12.5C163.025 13.2031 162.699 14.0755 162.595 15.1172C162.543 15.2474 162.074 15.3125 161.189 15.3125L160.955 15.3906C160.851 15.3906 160.72 15.612 160.564 16.0547C159.835 15.9505 159.47 15.7943 159.47 15.5859C159.522 15.4297 159.614 14.4922 159.744 12.7734C160.16 11.5755 161.15 10.4688 162.712 9.45312C163.442 9.03646 163.884 8.82812 164.041 8.82812ZM168.416 9.49219L168.337 9.60938L168.455 9.76562H168.689L168.728 9.6875L168.611 9.49219H168.416ZM171.384 9.80469H171.306V9.88281C171.515 10.0911 171.697 10.1953 171.853 10.1953H171.892V10.1172C171.684 9.90885 171.515 9.80469 171.384 9.80469ZM165.134 10V10.1172C165.16 10.1953 165.291 10.2344 165.525 10.2344C165.759 10.2344 166.085 10.1562 166.502 10V9.84375H166.345C165.772 9.84375 165.369 9.89583 165.134 10ZM161.619 11.25V11.3281H161.658C161.892 11.3281 162.244 11.0807 162.712 10.5859V10.4688H162.673C162.413 10.4688 162.061 10.7292 161.619 11.25ZM167.048 10.9766L166.853 11.1328L166.97 11.3281H167.478L167.595 11.2109L167.361 10.9766H167.048ZM161.306 14.1406L161.189 14.2188V14.8047H161.228C161.332 14.7786 161.384 14.6875 161.384 14.5312V14.2188L161.306 14.1406ZM175.486 17.2656H175.447V17.3438C175.499 17.5521 175.551 17.6562 175.603 17.6562L175.642 17.4609C175.59 17.3307 175.538 17.2656 175.486 17.2656ZM174.587 18.6328L174.47 18.7109V18.8281C174.574 19.2188 174.679 19.4141 174.783 19.4141H174.861C174.861 19.0755 174.783 18.8151 174.627 18.6328H174.587ZM163.142 18.8672L162.712 19.0625V19.2578H162.791C162.973 19.2578 163.103 19.1536 163.181 18.9453V18.8672H163.142ZM162.712 22.5781C162.895 24.1406 163.116 24.9219 163.377 24.9219L163.767 25.4297V25.4688L163.416 25.4297V25.5469C163.91 26.224 164.926 26.849 166.462 27.4219C166.645 27.526 166.905 27.6042 167.244 27.6562C167.712 27.6562 169.509 26.888 172.634 25.3516C172.843 25.2214 172.947 25.0781 172.947 24.9219V24.7266C172.712 23.6589 172.517 22.4089 172.361 20.9766L172.283 20.9375C172.283 20.651 171.996 20.4167 171.423 20.2344C169.496 19.6875 168.181 19.4141 167.478 19.4141C165.499 19.8568 164.145 20.5208 163.416 21.4062C162.947 21.875 162.712 22.2656 162.712 22.5781ZM174.47 20.0391L174.353 19.9609V20.0781H174.47V20.0391ZM174.627 20.7812H174.392V20.9375L174.509 21.0547L174.627 20.9375V20.7812ZM173.377 21.7578L173.259 21.875L173.377 22.0312L173.533 21.9922V21.875L173.416 21.7578H173.377ZM174.783 21.875H174.666V21.9141C174.718 22.9036 174.822 23.3984 174.978 23.3984L175.056 23.3203V23.2422C175.056 22.6953 174.965 22.2396 174.783 21.875ZM173.259 23.125L173.22 23.1641V23.3984L173.337 23.5547H173.377L173.533 23.3984V23.1641L173.416 23.125H173.259ZM176.58 26.7969H176.462V27.0312C176.567 27.3698 176.684 27.5391 176.814 27.5391H176.931V27.4219C176.827 27.0052 176.71 26.7969 176.58 26.7969ZM162.205 26.9141L162.127 26.9922V27.0312L162.205 27.1094H162.4V27.0312L162.283 26.9141H162.205ZM175.369 27.4219L175.252 27.5391C175.33 27.7214 175.434 27.8385 175.564 27.8906H175.603L175.759 27.7344V27.6562L175.564 27.4219H175.369ZM169.705 27.9688V28.0469H169.861C170.226 28.0469 170.707 27.8906 171.306 27.5781V27.5391H171.15C170.265 27.6432 169.783 27.7865 169.705 27.9688ZM176.228 28.0859L176.15 28.2422V28.3203L176.306 28.4766H176.462L176.58 28.3984V28.3203L176.384 28.0859H176.228ZM166.58 28.3984L166.462 28.5156C166.515 28.6458 166.619 28.7109 166.775 28.7109C167.061 28.6589 167.205 28.5938 167.205 28.5156V28.4766L167.087 28.3984H166.58ZM162.322 28.9453L162.205 29.1016C162.309 29.3359 162.96 29.6354 164.158 30C164.548 30.1823 165.069 30.2734 165.72 30.2734V30.2344C165.72 30.1562 165.226 30.013 164.236 29.8047C163.663 29.6484 163.064 29.362 162.439 28.9453H162.322ZM183.217 10.3125L183.295 10.2344C183.894 10.3385 184.519 10.3906 185.17 10.3906H188.373L188.491 10.5078C188.334 10.9766 188.256 11.3411 188.256 11.6016V12.2656C188.36 12.9948 188.569 13.3594 188.881 13.3594C189.038 13.0729 189.558 12.7995 190.444 12.5391C192.553 11.6276 194.272 11.1719 195.6 11.1719C196.485 11.1719 197.436 11.5625 198.452 12.3438C199.207 12.6302 199.936 13.2422 200.639 14.1797C201.707 15.8724 202.241 17.8646 202.241 20.1562V20.4688L201.967 23.2812L202.241 25.3125L201.85 27.1484V27.2266V27.5391L203.334 27.6172H203.998C204.441 27.6172 204.702 27.6562 204.78 27.7344C204.676 29.6354 204.48 30.5859 204.194 30.5859C203.673 30.8984 203.113 31.0547 202.514 31.0547H201.694C200.444 31.0547 199.129 31.224 197.748 31.5625C196.837 31.4323 196.381 30.9766 196.381 30.1953L196.342 28.7891C196.342 27.9297 196.564 27.3047 197.006 26.9141C197.241 25.638 197.514 24.4792 197.827 23.4375L198.061 19.9609C198.139 19.9609 198.178 19.6745 198.178 19.1016C198.178 18.3984 197.618 17.3958 196.498 16.0938C195.639 15.7292 195.144 15.5469 195.014 15.5469C193.504 15.5469 192.149 16.1849 190.952 17.4609C190.847 17.4609 190.209 18.099 189.038 19.375C188.673 19.6615 188.491 20.5339 188.491 21.9922C188.543 24.6224 188.634 25.9375 188.764 25.9375C189.806 26.1198 190.327 26.3151 190.327 26.5234V26.6797L189.467 26.6406L188.842 26.6797V26.8359C188.842 26.9401 189.337 27.0703 190.327 27.2266C190.509 27.4089 190.6 27.7083 190.6 28.125V28.2031C190.6 28.8281 190.47 29.4922 190.209 30.1953L185.678 30.2344C185.235 30.2344 184.91 30.013 184.702 29.5703C184.597 29.0755 184.48 28.112 184.35 26.6797C184.35 26.5495 184.741 26.4062 185.522 26.25L185.717 25.9766V25.9375C185.717 25.7812 185.613 25.5599 185.405 25.2734V24.0625V21.8359L185.561 18.2422C185.561 15.7943 185.457 14.5703 185.248 14.5703H185.053L183.217 14.8047C183.035 14.8047 182.788 14.6484 182.475 14.3359V14.1797C182.605 13.9714 182.67 13.75 182.67 13.5156L182.592 12.0703L183.217 10.3125ZM186.616 11.0156L183.413 11.5234V11.6016C183.413 11.6797 183.608 11.7318 183.998 11.7578C185.691 11.7578 186.538 11.6406 186.538 11.4062L186.694 11.1719V11.0938H186.616V11.0156ZM194.389 11.7578V11.7969C194.571 11.7969 194.884 11.9531 195.327 12.2656L195.756 12.3828L197.006 12.3438L197.045 12.2656V12.2266C197.019 12.0703 196.876 11.9922 196.616 11.9922H196.459L196.069 12.0703C195.496 11.7318 195.079 11.5625 194.819 11.5625C194.584 11.5625 194.441 11.6276 194.389 11.7578ZM191.733 12.4609V12.5L191.811 12.6172C193.035 12.3047 193.647 12.0703 193.647 11.9141H193.569C192.996 11.9141 192.384 12.0964 191.733 12.4609ZM184.194 12.5L184.311 12.6172H184.389C184.728 12.5911 184.897 12.513 184.897 12.3828L184.702 12.3438C184.363 12.3438 184.194 12.3958 184.194 12.5ZM184.545 13.2812V13.3594L185.288 13.3203H185.405C185.665 13.3203 185.821 13.3854 185.873 13.5156V13.6328C185.743 13.763 185.678 13.8932 185.678 14.0234C185.808 14.1276 185.965 14.1797 186.147 14.1797C186.225 14.1797 186.264 14.1276 186.264 14.0234L186.303 12.7344L186.264 12.6172H186.147C185.991 12.7214 185.47 12.9297 184.584 13.2422L184.545 13.2812ZM191.03 12.8516L191.069 12.8906V12.9297C191.303 12.8516 191.42 12.7865 191.42 12.7344V12.6562H191.342C191.134 12.7083 191.03 12.7734 191.03 12.8516ZM183.139 12.8906V12.9297C183.139 13.0078 183.204 13.0729 183.334 13.125C183.543 13.125 183.777 13.0078 184.038 12.7734V12.7344H183.413C183.23 12.7604 183.139 12.8125 183.139 12.8906ZM196.616 13.5156C196.616 13.6198 196.85 13.6979 197.319 13.75C197.423 13.6719 197.475 13.5677 197.475 13.4375C197.475 13.3073 197.267 13.2031 196.85 13.125C196.694 13.2292 196.616 13.3594 196.616 13.5156ZM188.725 13.8281V13.9844C189.09 13.9844 189.48 13.75 189.897 13.2812V13.2422L189.858 13.2031H189.819C189.506 13.2031 189.142 13.4115 188.725 13.8281ZM198.1 13.2812L197.983 13.4375C198.035 13.5677 198.139 13.6328 198.295 13.6328H198.491L198.686 13.4766V13.4375C198.66 13.3333 198.53 13.2812 198.295 13.2812H198.1ZM193.764 13.6719V13.75H193.959C194.35 13.6979 194.545 13.6198 194.545 13.5156V13.4375H194.272C193.933 13.4635 193.764 13.5417 193.764 13.6719ZM187.358 13.4766H187.163L187.084 13.7109V14.4141C187.084 14.7266 187.032 14.9349 186.928 15.0391V15.2344L187.084 15.7812V16.0938C187.084 16.3021 187.149 16.4453 187.28 16.5234C187.306 16.5234 187.384 16.224 187.514 15.625C187.879 15.3385 188.061 15.1172 188.061 14.9609C188.061 14.8307 187.918 14.5443 187.631 14.1016C187.553 13.6849 187.462 13.4766 187.358 13.4766ZM183.452 14.1016V14.1797H183.842L183.998 14.0234V13.9844L183.803 13.9062C183.569 13.9844 183.452 14.0495 183.452 14.1016ZM197.436 14.2188L197.202 14.1016L197.123 14.1797V14.2188L197.319 14.3359H197.358L197.436 14.2188ZM194.428 14.4922L194.506 14.5703H194.545C195.118 14.5703 195.405 14.5182 195.405 14.4141L195.092 14.3359C194.649 14.388 194.428 14.4401 194.428 14.4922ZM188.764 16.0156V16.1328C189.441 16.0547 190.379 15.4948 191.577 14.4531V14.4141H191.342C191.238 14.4141 190.926 14.5964 190.405 14.9609C189.311 15.2995 188.764 15.651 188.764 16.0156ZM198.1 14.4922H198.061V14.6094C198.061 14.6875 198.23 15.0521 198.569 15.7031C198.569 15.9115 198.621 16.0156 198.725 16.0156L198.881 15.8594V15.7031C198.881 15.2865 198.621 14.8828 198.1 14.4922ZM185.952 14.9609L186.03 15.0781H186.108L186.225 14.5703H186.108C186.03 14.5703 185.978 14.7005 185.952 14.9609ZM195.795 15.2344V15.3516H196.772L196.928 15.2344V15.0781L196.733 14.9609H196.538C196.043 15.0391 195.795 15.1302 195.795 15.2344ZM191.928 15.8594C192.501 15.7552 192.788 15.612 192.788 15.4297L192.67 15.3516H192.553C192.163 15.3516 191.954 15.5208 191.928 15.8594ZM190.678 16.3281V16.4062H190.795C191.212 16.0677 191.42 15.7812 191.42 15.5469H191.342V15.4688C191.134 15.4688 190.913 15.7552 190.678 16.3281ZM187.67 15.9375L187.748 16.1719C187.748 16.3802 187.631 16.5885 187.397 16.7969C187.527 16.9271 187.592 17.0573 187.592 17.1875C187.592 18.4896 187.683 19.1406 187.866 19.1406H187.905C188.113 18.6719 188.217 18.0599 188.217 17.3047C188.191 16.3411 188.074 15.8333 187.866 15.7812H187.788C187.709 15.7812 187.67 15.8333 187.67 15.9375ZM198.686 16.4453V16.5625C198.998 17.7344 199.194 18.3464 199.272 18.3984L199.35 18.125V17.7734C199.168 16.888 198.946 16.4453 198.686 16.4453ZM200.444 16.5234H200.405C200.457 17.9036 200.587 18.5938 200.795 18.5938H200.873C200.743 17.2135 200.6 16.5234 200.444 16.5234ZM190.209 16.6016L189.975 16.9141V16.9922L190.014 17.0703H190.209L190.327 16.6016H190.209ZM189.116 16.9922L189.038 17.0703L189.116 17.1875H189.272V17.0703L189.194 16.9922H189.116ZM200.17 21.6016V21.6406L200.288 22.1094H200.483C200.457 21.7708 200.353 21.6016 200.17 21.6016ZM198.686 24.4141L198.725 24.4531H198.764C198.842 24.4531 198.881 24.3229 198.881 24.0625V23.5938C198.777 23.5938 198.712 23.8672 198.686 24.4141ZM198.452 25.0391C198.608 25.2214 198.686 25.4688 198.686 25.7812H198.764L198.881 25.3125V24.6484C198.595 24.6484 198.452 24.7786 198.452 25.0391ZM200.17 24.6875H200.092V24.8828H200.17V24.6875ZM201.069 24.8828L200.991 25.6641V26.6406H201.03C201.368 26.224 201.538 25.8333 201.538 25.4688V25.4297C201.538 25.0651 201.381 24.8828 201.069 24.8828ZM200.053 26.6797V26.7578H200.092L200.248 26.3281V26.25H200.17C200.092 26.25 200.053 26.3932 200.053 26.6797ZM184.975 26.8359L184.897 26.9922V27.0312C184.949 27.5 185.118 27.7344 185.405 27.7344H185.639L185.756 27.6172V27.5391C185.522 27.2526 185.405 27.0182 185.405 26.8359H184.975ZM200.17 27.3828H200.014V27.5391L200.17 27.6953L200.288 27.6172V27.5391L200.17 27.3828ZM202.28 28.2812V28.3984C203.452 28.3984 204.038 28.3073 204.038 28.125V28.0469H203.491C202.683 28.0729 202.28 28.151 202.28 28.2812ZM186.616 28.6719C186.616 28.8021 186.954 28.8672 187.631 28.8672C188.933 28.8672 189.584 28.8021 189.584 28.6719C189.584 28.5156 189.142 28.4375 188.256 28.4375C187.267 28.4375 186.72 28.5156 186.616 28.6719ZM197.202 28.7891H197.084V29.0234L197.202 29.1406H197.319L197.358 29.0234V28.9844L197.202 28.7891ZM202.631 29.1016V29.2188C202.683 29.349 202.801 29.4141 202.983 29.4141C203.399 29.4141 203.647 29.3229 203.725 29.1406V29.0234C203.673 28.8672 203.53 28.7891 203.295 28.7891H203.1C202.84 28.7891 202.683 28.8932 202.631 29.1016ZM198.061 29.8047C198.139 30.013 198.269 30.1172 198.452 30.1172C199.858 30.0911 200.561 30 200.561 29.8438C200.379 29.6094 200.053 29.4922 199.584 29.4922C198.569 29.5182 198.061 29.6224 198.061 29.8047ZM197.084 30.5469L196.928 30.7031V30.7812C196.928 30.9635 197.28 31.0547 197.983 31.0547H198.178L198.491 30.9766V30.9375C198.23 30.6771 197.814 30.5469 197.241 30.5469H197.084Z" fill="white"/>
</svg>
