<svg width="186" height="42" viewBox="0 0 186 42" fill="none" xmlns="http://www.w3.org/2000/svg">
<path d="M6.08 13.08L4 32H0.6L4 2.6L15.2 22.88L26.4 2.6L29.8 32H26.4L24.32 13.08L15.2 29.4L6.08 13.08ZM37.8228 26.32C37.8228 27.0133 37.9828 27.6133 38.3028 28.12C38.6495 28.6267 39.1161 29.0133 39.7028 29.28C40.3161 29.52 41.0095 29.64 41.7828 29.64C42.7695 29.64 43.6495 29.44 44.4228 29.04C45.2228 28.64 45.8495 28.08 46.3028 27.36C46.7828 26.6133 47.0228 25.76 47.0228 24.8L47.6628 27.2C47.6628 28.3733 47.3028 29.3467 46.5828 30.12C45.8895 30.8933 45.0228 31.4667 43.9828 31.84C42.9695 32.2133 41.9561 32.4 40.9428 32.4C39.8228 32.4 38.7695 32.1733 37.7828 31.72C36.8228 31.24 36.0495 30.56 35.4628 29.68C34.8761 28.8 34.5828 27.7333 34.5828 26.48C34.5828 24.6933 35.2095 23.2667 36.4628 22.2C37.7428 21.1067 39.5161 20.56 41.7828 20.56C43.1161 20.56 44.2228 20.72 45.1028 21.04C46.0095 21.3333 46.7295 21.68 47.2628 22.08C47.7961 22.4533 48.1561 22.76 48.3428 23V24.88C47.4095 24.24 46.4495 23.7867 45.4628 23.52C44.4761 23.2267 43.4228 23.08 42.3028 23.08C41.2628 23.08 40.4095 23.2133 39.7428 23.48C39.1028 23.7467 38.6228 24.12 38.3028 24.6C37.9828 25.08 37.8228 25.6533 37.8228 26.32ZM37.3428 17.84L35.7828 15.48C36.4761 14.9733 37.4228 14.4667 38.6228 13.96C39.8495 13.4533 41.3161 13.2 43.0228 13.2C44.4628 13.2 45.7161 13.4267 46.7828 13.88C47.8761 14.3067 48.7161 14.9333 49.3028 15.76C49.9161 16.5867 50.2228 17.6 50.2228 18.8V32H47.0228V19.24C47.0228 18.6 46.9161 18.08 46.7028 17.68C46.4895 17.2533 46.1828 16.92 45.7828 16.68C45.4095 16.44 44.9695 16.2667 44.4628 16.16C43.9561 16.0533 43.4228 16 42.8628 16C41.9561 16 41.1295 16.1067 40.3828 16.32C39.6628 16.5333 39.0495 16.7867 38.5428 17.08C38.0361 17.3733 37.6361 17.6267 37.3428 17.84ZM57.6406 0.799999H60.8406V32H57.6406V0.799999ZM68.8594 0.799999H72.0594V32H68.8594V0.799999ZM81.5181 26.32C81.5181 27.0133 81.6781 27.6133 81.9981 28.12C82.3448 28.6267 82.8115 29.0133 83.3981 29.28C84.0115 29.52 84.7048 29.64 85.4781 29.64C86.4648 29.64 87.3448 29.44 88.1181 29.04C88.9181 28.64 89.5448 28.08 89.9981 27.36C90.4781 26.6133 90.7181 25.76 90.7181 24.8L91.3581 27.2C91.3581 28.3733 90.9981 29.3467 90.2781 30.12C89.5848 30.8933 88.7181 31.4667 87.6781 31.84C86.6648 32.2133 85.6515 32.4 84.6381 32.4C83.5181 32.4 82.4648 32.1733 81.4781 31.72C80.5181 31.24 79.7448 30.56 79.1581 29.68C78.5715 28.8 78.2781 27.7333 78.2781 26.48C78.2781 24.6933 78.9048 23.2667 80.1581 22.2C81.4381 21.1067 83.2115 20.56 85.4781 20.56C86.8115 20.56 87.9181 20.72 88.7981 21.04C89.7048 21.3333 90.4248 21.68 90.9581 22.08C91.4915 22.4533 91.8515 22.76 92.0381 23V24.88C91.1048 24.24 90.1448 23.7867 89.1581 23.52C88.1715 23.2267 87.1181 23.08 85.9981 23.08C84.9581 23.08 84.1048 23.2133 83.4381 23.48C82.7981 23.7467 82.3181 24.12 81.9981 24.6C81.6781 25.08 81.5181 25.6533 81.5181 26.32ZM81.0381 17.84L79.4781 15.48C80.1715 14.9733 81.1181 14.4667 82.3181 13.96C83.5448 13.4533 85.0115 13.2 86.7181 13.2C88.1581 13.2 89.4115 13.4267 90.4781 13.88C91.5715 14.3067 92.4115 14.9333 92.9981 15.76C93.6115 16.5867 93.9181 17.6 93.9181 18.8V32H90.7181V19.24C90.7181 18.6 90.6115 18.08 90.3981 17.68C90.1848 17.2533 89.8781 16.92 89.4781 16.68C89.1048 16.44 88.6648 16.2667 88.1581 16.16C87.6515 16.0533 87.1181 16 86.5581 16C85.6515 16 84.8248 16.1067 84.0781 16.32C83.3581 16.5333 82.7448 16.7867 82.2381 17.08C81.7315 17.3733 81.3315 17.6267 81.0381 17.84ZM100.096 33.2H103.336C103.336 34.08 103.576 34.8933 104.056 35.64C104.536 36.4133 105.216 37.0267 106.096 37.48C106.976 37.96 108.016 38.2 109.216 38.2C110.149 38.2 111.069 37.9733 111.976 37.52C112.883 37.0667 113.629 36.3467 114.216 35.36C114.829 34.4 115.136 33.1467 115.136 31.6V13.6H118.336V31.6C118.336 33.7067 117.896 35.4667 117.016 36.88C116.136 38.32 115.003 39.4 113.616 40.12C112.229 40.84 110.763 41.2 109.216 41.2C107.429 41.2 105.843 40.8667 104.456 40.2C103.096 39.5333 102.029 38.5867 101.256 37.36C100.483 36.16 100.096 34.7733 100.096 33.2ZM99.7359 22.8C99.7359 20.8 100.149 19.0933 100.976 17.68C101.803 16.24 102.909 15.1333 104.296 14.36C105.683 13.5867 107.203 13.2 108.856 13.2C110.403 13.2 111.749 13.5867 112.896 14.36C114.043 15.1333 114.936 16.24 115.576 17.68C116.243 19.0933 116.576 20.8 116.576 22.8C116.576 24.7733 116.243 26.48 115.576 27.92C114.936 29.36 114.043 30.4667 112.896 31.24C111.749 32.0133 110.403 32.4 108.856 32.4C107.203 32.4 105.683 32.0133 104.296 31.24C102.909 30.4667 101.803 29.36 100.976 27.92C100.149 26.48 99.7359 24.7733 99.7359 22.8ZM102.976 22.8C102.976 24.2133 103.256 25.4133 103.816 26.4C104.403 27.3867 105.176 28.1333 106.136 28.64C107.096 29.1467 108.136 29.4 109.256 29.4C110.189 29.4 111.109 29.1467 112.016 28.64C112.923 28.1333 113.669 27.3867 114.256 26.4C114.843 25.4133 115.136 24.2133 115.136 22.8C115.136 21.7333 114.963 20.8 114.616 20C114.269 19.1733 113.803 18.48 113.216 17.92C112.656 17.36 112.029 16.9333 111.336 16.64C110.643 16.3467 109.949 16.2 109.256 16.2C108.136 16.2 107.096 16.4533 106.136 16.96C105.176 17.4667 104.403 18.2133 103.816 19.2C103.256 20.1867 102.976 21.3867 102.976 22.8ZM129.348 0.799999V32H126.148V0.799999H129.348ZM137.948 20.8C137.948 19.28 137.615 18.1333 136.948 17.36C136.308 16.5867 135.335 16.2 134.028 16.2C133.095 16.2 132.268 16.4 131.548 16.8C130.855 17.2 130.308 17.7467 129.908 18.44C129.535 19.1333 129.348 19.92 129.348 20.8H128.308C128.308 19.3333 128.588 18.04 129.148 16.92C129.708 15.7733 130.468 14.8667 131.428 14.2C132.415 13.5333 133.548 13.2 134.828 13.2C136.108 13.2 137.215 13.4667 138.148 14C139.108 14.5333 139.842 15.3333 140.348 16.4C140.882 17.4667 141.148 18.8 141.148 20.4V32H137.948V20.8ZM150.604 26.32C150.604 27.0133 150.764 27.6133 151.084 28.12C151.431 28.6267 151.897 29.0133 152.484 29.28C153.097 29.52 153.791 29.64 154.564 29.64C155.551 29.64 156.431 29.44 157.204 29.04C158.004 28.64 158.631 28.08 159.084 27.36C159.564 26.6133 159.804 25.76 159.804 24.8L160.444 27.2C160.444 28.3733 160.084 29.3467 159.364 30.12C158.671 30.8933 157.804 31.4667 156.764 31.84C155.751 32.2133 154.737 32.4 153.724 32.4C152.604 32.4 151.551 32.1733 150.564 31.72C149.604 31.24 148.831 30.56 148.244 29.68C147.657 28.8 147.364 27.7333 147.364 26.48C147.364 24.6933 147.991 23.2667 149.244 22.2C150.524 21.1067 152.297 20.56 154.564 20.56C155.897 20.56 157.004 20.72 157.884 21.04C158.791 21.3333 159.511 21.68 160.044 22.08C160.577 22.4533 160.937 22.76 161.124 23V24.88C160.191 24.24 159.231 23.7867 158.244 23.52C157.257 23.2267 156.204 23.08 155.084 23.08C154.044 23.08 153.191 23.2133 152.524 23.48C151.884 23.7467 151.404 24.12 151.084 24.6C150.764 25.08 150.604 25.6533 150.604 26.32ZM150.124 17.84L148.564 15.48C149.257 14.9733 150.204 14.4667 151.404 13.96C152.631 13.4533 154.097 13.2 155.804 13.2C157.244 13.2 158.497 13.4267 159.564 13.88C160.657 14.3067 161.497 14.9333 162.084 15.76C162.697 16.5867 163.004 17.6 163.004 18.8V32H159.804V19.24C159.804 18.6 159.697 18.08 159.484 17.68C159.271 17.2533 158.964 16.92 158.564 16.68C158.191 16.44 157.751 16.2667 157.244 16.16C156.737 16.0533 156.204 16 155.644 16C154.737 16 153.911 16.1067 153.164 16.32C152.444 16.5333 151.831 16.7867 151.324 17.08C150.817 17.3733 150.417 17.6267 150.124 17.84ZM182.222 20.8C182.222 19.28 181.889 18.1333 181.222 17.36C180.555 16.5867 179.582 16.2 178.302 16.2C177.369 16.2 176.542 16.4 175.822 16.8C175.129 17.1733 174.582 17.7067 174.182 18.4C173.809 19.0933 173.622 19.8933 173.622 20.8V32H170.422V13.6H173.622V16.48C174.235 15.36 174.995 14.5333 175.902 14C176.835 13.4667 177.902 13.2 179.102 13.2C181.049 13.2 182.582 13.8533 183.702 15.16C184.849 16.44 185.422 18.1867 185.422 20.4V32H182.222V20.8Z" fill="white"/>
</svg>
