<svg width="202" height="44" viewBox="0 0 202 44" fill="none" xmlns="http://www.w3.org/2000/svg">
<path d="M1.96 5.8L1.8 2.8C1.8 2.64 2.45333 2.30666 3.76 1.8C5.09333 1.26666 5.85333 0.999999 6.04 0.999999L7.04 1.44C7.2 1.44 7.41333 1.44 7.68 1.44C7.97333 1.41333 8.41333 1.38667 9 1.36C10.3333 1.33333 10.9867 1.30667 10.96 1.28C12.8533 1.65333 13.8 2.01333 13.8 2.36C13.8 3.08 13.88 4.09333 14.04 5.4C14.2 6.68 14.44 7.49333 14.76 7.84C14.76 7.89333 14.5867 8.14666 14.24 8.6C13.8933 9.05333 13.72 9.48 13.72 9.88C13.72 10.0133 13.9067 10.16 14.28 10.32C14.6533 10.48 14.84 10.6 14.84 10.68C15.1067 13.3733 15.3067 14.84 15.44 15.08C15.6 15.32 15.88 15.44 16.28 15.44C16.3867 15.44 16.48 15.28 16.56 14.96C16.8533 13.7333 17.08 13.04 17.24 12.88C17.5333 9.94667 17.7733 8.37333 17.96 8.16C18.76 7.73333 19.16 7.30667 19.16 6.88C19.16 6.64 19.0267 6.38667 18.76 6.12C18.4933 5.82667 18.36 5.65333 18.36 5.6C18.36 5.52 18.52 4.98666 18.84 4C19.16 2.98667 19.3867 2.41333 19.52 2.28C19.68 2.12 20.7067 1.81333 22.6 1.36C24.4933 0.879999 25.68 0.639998 26.16 0.639998C29.44 0.773332 31.08 1.06667 31.08 1.52C30.5733 3.46667 30.32 4.58667 30.32 4.88C30.32 5.17333 30.3333 5.32 30.36 5.32C30.6 5.32 30.72 6.72 30.72 9.52V10.24C30.72 10.2933 30.6133 10.3733 30.4 10.48C29.7333 10.88 29.4 11.3733 29.4 11.96C29.4 11.9867 29.6 12.16 30 12.48C30.4 12.7733 30.6 13 30.6 13.16V13.2C30.3333 14.4267 30.2 16.8667 30.2 20.52L30.24 23.08C30.3733 23.3733 30.44 23.8667 30.44 24.56V25C30.44 25.08 30.2533 25.3067 29.88 25.68C29.5333 26.0533 29.36 26.32 29.36 26.48C29.36 26.8267 29.7467 27.0533 30.52 27.16C30.52 27.7733 30.8 28.76 31.36 30.12L31.64 30.8C31.64 31.04 30.8667 31.44 29.32 32C27.8 32.56 26.5867 32.84 25.68 32.84C25.36 32.84 24.6667 32.6133 23.6 32.16C22.5333 31.7333 22 31.4133 22 31.2L22.64 27.76L22.48 22.72C22.48 22.6933 22.64 22.5067 22.96 22.16C23.3067 21.7867 23.48 21.48 23.48 21.24C23.48 20.9733 23.4 20.76 23.24 20.6C23.1067 20.4133 22.96 20.2933 22.8 20.24C22.64 20.16 22.56 20.1067 22.56 20.08C22.56 19.76 22.72 19.2267 23.04 18.48C23.04 17.7867 22.9867 16.5867 22.88 14.88C22.8 13.1467 22.7067 12.28 22.6 12.28L21.92 12.6C21.84 12.68 21.48 14.0667 20.84 16.76C20.2 19.4267 19.88 20.8267 19.88 20.96C19.88 21.0933 19.9467 21.32 20.08 21.64C20.2133 21.96 20.28 22.1867 20.28 22.32C20.28 22.4267 20.2 22.56 20.04 22.72C19.9067 22.8533 19.7333 23 19.52 23.16C19.3067 23.32 19.1733 23.4267 19.12 23.48L18.92 24.12C18.92 24.3067 19.04 24.5333 19.28 24.8C19.52 25.04 19.64 25.2 19.64 25.28C19.64 25.3333 19.44 25.64 19.04 26.2C18.6667 26.7333 18.1333 27.2933 17.44 27.88C16.7733 28.4667 16.1733 28.76 15.64 28.76C15.1333 28.76 14.24 28.5733 12.96 28.2C11.68 27.8 11.04 27.4933 11.04 27.28L10.68 25.4C10.68 25.3733 10.7733 25.32 10.96 25.24C11.5467 25 11.84 24.6667 11.84 24.24C11.84 23.9467 11.56 23.7467 11 23.64C10.4667 23.5333 10.2 23.4 10.2 23.24C10.2 21.48 9.73333 18.6933 8.8 14.88L8.36 13C8.33333 13 8.32 13 8.32 13C8.32 12.9733 8.30667 12.96 8.28 12.96L7.8 13.2C7.61333 13.3867 7.52 14.7067 7.52 17.16L7.64 23.04C7.93333 23.9467 8.08 24.5467 8.08 24.84C8.08 25.1067 8.06667 25.2533 8.04 25.28C7.4 25.7333 7.08 26.2133 7.08 26.72V26.88C7.08 27.0133 7.18667 27.1467 7.4 27.28C7.64 27.3867 7.78667 27.4667 7.84 27.52C7.89333 27.6267 7.92 27.76 7.92 27.92L7.88 28.92L8.08 30.52C8.08 30.8667 8 31.0533 7.84 31.08L6.32 31.76C5.28 32.2133 4.62667 32.44 4.36 32.44C4.09333 32.44 3.42667 32.2533 2.36 31.88C1.32 31.5067 0.8 31.2133 0.8 31C0.8 30.9467 0.893333 30.5733 1.08 29.88C1.66667 27.6933 1.96 25.7733 1.96 24.12C1.96 24.0933 1.81333 24 1.52 23.84C1.22667 23.68 1.08 23.56 1.08 23.48L1.92 19.28C1.84 18.8267 1.8 16.6667 1.8 12.8V10.84C1.8 10.8133 1.89333 10.7467 2.08 10.64C2.58667 10.2667 2.84 9.94667 2.84 9.68C2.84 9.38667 2.8 9.16 2.72 9C2.64 8.84 2.53333 8.70667 2.4 8.6C2.29333 8.49333 2.17333 8.4 2.04 8.32C1.93333 8.24 1.84 8.18667 1.76 8.16C1.70667 8.10667 1.72 7.96 1.8 7.72C1.90667 7.48 1.96 6.84 1.96 5.8ZM47.5819 23.56L47.7019 21.56C47.7019 21.3733 47.6752 21.28 47.6219 21.28C47.2752 21.28 46.6752 21.4933 45.8219 21.92C44.9952 22.3467 44.5819 22.72 44.5819 23.04C44.7952 23.3867 44.9019 23.6667 44.9019 23.88C44.9019 24.0667 44.8619 24.2 44.7819 24.28C44.4619 24.4133 44.3019 24.6267 44.3019 24.92C44.3019 25.1867 44.4752 25.5067 44.8219 25.88C45.1952 26.2267 45.5019 26.4 45.7419 26.4C45.9819 26.4 46.3952 26.1733 46.9819 25.72C47.5685 25.24 47.8619 24.8933 47.8619 24.68L47.8219 24.6C47.6619 24.44 47.5819 24.0933 47.5819 23.56ZM54.1419 21.84L54.3419 24.88C54.3419 25.12 54.3152 25.24 54.2619 25.24C53.3819 25.7733 52.9419 26.4 52.9419 27.12C52.9419 27.3333 53.1419 27.52 53.5419 27.68L54.1419 27.92L54.4619 30.04L55.1819 31.36C55.1819 31.4133 55.0619 31.52 54.8219 31.68C54.1285 32.1867 53.5952 32.44 53.2219 32.44C52.6085 32.44 51.9152 32.6667 51.1419 33.12L50.7819 33.32H50.7019C50.2752 33.32 49.4219 33.08 48.1419 32.6L47.5019 32.36C47.4485 32.3067 47.4219 32.1867 47.4219 32L47.5419 30.12V29.96L47.0219 29.8C46.9419 29.8 46.7952 29.9467 46.5819 30.24C46.2352 30.6933 45.3952 31.36 44.0619 32.24L43.3819 32.68C42.6085 32.68 41.8352 32.44 41.0619 31.96C40.3152 31.48 39.7419 31.0267 39.3419 30.6C38.9419 30.1467 38.7419 29.8933 38.7419 29.84C38.7419 29.7867 38.7952 29.72 38.9019 29.64C39.1685 29.4 39.3019 29.1467 39.3019 28.88C39.3019 28.4 38.8219 28.04 37.8619 27.8L37.4219 27.68C37.4219 26.48 37.5285 25.32 37.7419 24.2C37.9819 23.08 38.2085 22.2667 38.4219 21.76L38.7819 20.96C39.1019 20.5333 40.1152 19.8667 41.8219 18.96C43.5285 18.0533 44.9152 17.6 45.9819 17.6C46.0619 17.6 46.1952 17.6933 46.3819 17.88C46.5952 18.04 46.7685 18.12 46.9019 18.12C47.0619 18.12 47.2485 18.0533 47.4619 17.92C47.9152 17.68 48.1419 17.48 48.1419 17.32C48.1419 16.92 47.9552 16.4 47.5819 15.76C47.2885 15.4667 46.3419 15.24 44.7419 15.08L43.9419 15C43.4085 15 42.6619 15.2 41.7019 15.6C40.7419 15.9733 40.2352 16.16 40.1819 16.16C40.1285 16.16 39.9952 16 39.7819 15.68C39.5685 15.36 39.4619 15.1333 39.4619 15C39.4619 14.84 39.7019 14.2933 40.1819 13.36C40.6885 12.4 41.0352 11.8533 41.2219 11.72C41.5419 11.5333 42.5285 11.2133 44.1819 10.76C45.8352 10.3067 47.0219 10.08 47.7419 10.08C48.9152 10.8533 49.9419 11.3467 50.8219 11.56C51.7285 11.7467 52.5952 12.1467 53.4219 12.76C54.2485 13.3467 54.6619 13.9333 54.6619 14.52C54.6619 14.5733 54.5285 14.8533 54.2619 15.36C54.0219 15.8667 53.9019 16.28 53.9019 16.6C53.9019 16.92 53.9685 17.2 54.1019 17.44L54.3419 17.8C54.3419 19.1333 54.3019 19.8933 54.2219 20.08C53.9285 20.6667 53.7819 20.9867 53.7819 21.04L54.1419 21.6V21.84ZM68.6259 12.96L68.2659 17.76C68.2659 19.4667 68.3326 21.3467 68.4659 23.4C68.6259 25.4533 68.7059 26.5333 68.7059 26.64C68.7059 26.72 68.5993 26.88 68.3859 27.12C68.1993 27.36 68.1059 27.6 68.1059 27.84C68.1059 28.0533 68.3859 28.64 68.9459 29.6C69.5326 30.56 69.8259 31.2133 69.8259 31.56C69.8259 31.6133 69.6793 31.7067 69.3859 31.84C68.5593 32.1867 68.0926 32.4533 67.9859 32.64C67.7726 32.9867 67.1993 33.2533 66.2659 33.44L65.7859 33.56C65.2526 33.56 64.3326 33.3733 63.0259 33C61.7193 32.6533 61.0659 32.4133 61.0659 32.28L61.3459 29.6C61.3459 29.5733 61.4126 29.4667 61.5459 29.28C61.8926 28.72 62.0659 28.2667 62.0659 27.92C62.0659 27.8933 61.9459 27.68 61.7059 27.28C61.4659 26.88 61.3459 26.5867 61.3459 26.4C61.3459 26.1867 61.3593 26.0533 61.3859 26C61.4393 25.9467 61.5726 25.88 61.7859 25.8C62.0259 25.6933 62.1726 25.6133 62.2259 25.56C62.4393 25.1333 62.5459 24.84 62.5459 24.68C62.5459 24.44 62.0793 24.1333 61.1459 23.76C61.2259 23.44 61.2659 22.8933 61.2659 22.12L61.1859 19.96C61.1859 19.8533 61.3459 19.6667 61.6659 19.4C61.6926 19.3733 61.7059 19 61.7059 18.28L61.5459 10.88C61.5459 10.7733 61.7193 10.5867 62.0659 10.32C62.4126 10.0267 62.5859 9.69333 62.5859 9.32C62.5859 9.13333 62.3859 8.97333 61.9859 8.84C61.6126 8.70666 61.4259 8.61333 61.4259 8.56C61.4259 7.01333 61.3593 5.74666 61.2259 4.76C61.0926 3.77333 61.0259 3.22666 61.0259 3.12C61.0259 2.98666 61.0793 2.86667 61.1859 2.76C61.3193 2.62666 62.0126 2.25333 63.2659 1.64C64.5193 1.02666 65.4259 0.719997 65.9859 0.719997C66.5726 0.719997 67.2659 0.786665 68.0659 0.92C68.8659 1.02666 69.2659 1.16 69.2659 1.32L68.3859 3.92L68.3459 4.52L68.6259 10.12C68.6259 10.44 68.6126 10.6133 68.5859 10.64C67.8393 11.2533 67.4659 11.7333 67.4659 12.08C67.4659 12.4267 67.6526 12.6533 68.0259 12.76C68.4259 12.8667 68.6259 12.9333 68.6259 12.96ZM83.3088 12.96L82.9488 17.76C82.9488 19.4667 83.0154 21.3467 83.1488 23.4C83.3088 25.4533 83.3888 26.5333 83.3888 26.64C83.3888 26.72 83.2821 26.88 83.0688 27.12C82.8821 27.36 82.7888 27.6 82.7888 27.84C82.7888 28.0533 83.0688 28.64 83.6288 29.6C84.2154 30.56 84.5088 31.2133 84.5088 31.56C84.5088 31.6133 84.3621 31.7067 84.0688 31.84C83.2421 32.1867 82.7754 32.4533 82.6688 32.64C82.4554 32.9867 81.8821 33.2533 80.9488 33.44L80.4688 33.56C79.9354 33.56 79.0154 33.3733 77.7088 33C76.4021 32.6533 75.7488 32.4133 75.7488 32.28L76.0288 29.6C76.0288 29.5733 76.0954 29.4667 76.2288 29.28C76.5754 28.72 76.7488 28.2667 76.7488 27.92C76.7488 27.8933 76.6288 27.68 76.3888 27.28C76.1488 26.88 76.0288 26.5867 76.0288 26.4C76.0288 26.1867 76.0421 26.0533 76.0688 26C76.1221 25.9467 76.2554 25.88 76.4688 25.8C76.7088 25.6933 76.8554 25.6133 76.9088 25.56C77.1221 25.1333 77.2288 24.84 77.2288 24.68C77.2288 24.44 76.7621 24.1333 75.8288 23.76C75.9088 23.44 75.9488 22.8933 75.9488 22.12L75.8688 19.96C75.8688 19.8533 76.0288 19.6667 76.3488 19.4C76.3754 19.3733 76.3888 19 76.3888 18.28L76.2288 10.88C76.2288 10.7733 76.4021 10.5867 76.7488 10.32C77.0954 10.0267 77.2688 9.69333 77.2688 9.32C77.2688 9.13333 77.0688 8.97333 76.6688 8.84C76.2954 8.70666 76.1088 8.61333 76.1088 8.56C76.1088 7.01333 76.0421 5.74666 75.9088 4.76C75.7754 3.77333 75.7088 3.22666 75.7088 3.12C75.7088 2.98666 75.7621 2.86667 75.8688 2.76C76.0021 2.62666 76.6954 2.25333 77.9488 1.64C79.2021 1.02666 80.1088 0.719997 80.6688 0.719997C81.2554 0.719997 81.9488 0.786665 82.7488 0.92C83.5488 1.02666 83.9488 1.16 83.9488 1.32L83.0688 3.92L83.0288 4.52L83.3088 10.12C83.3088 10.44 83.2954 10.6133 83.2688 10.64C82.5221 11.2533 82.1488 11.7333 82.1488 12.08C82.1488 12.4267 82.3354 12.6533 82.7088 12.76C83.1088 12.8667 83.3088 12.9333 83.3088 12.96ZM99.8725 23.56L99.9925 21.56C99.9925 21.3733 99.9658 21.28 99.9125 21.28C99.5658 21.28 98.9658 21.4933 98.1125 21.92C97.2858 22.3467 96.8725 22.72 96.8725 23.04C97.0858 23.3867 97.1925 23.6667 97.1925 23.88C97.1925 24.0667 97.1525 24.2 97.0725 24.28C96.7525 24.4133 96.5925 24.6267 96.5925 24.92C96.5925 25.1867 96.7658 25.5067 97.1125 25.88C97.4858 26.2267 97.7925 26.4 98.0325 26.4C98.2725 26.4 98.6858 26.1733 99.2725 25.72C99.8592 25.24 100.152 24.8933 100.152 24.68L100.112 24.6C99.9525 24.44 99.8725 24.0933 99.8725 23.56ZM106.432 21.84L106.632 24.88C106.632 25.12 106.606 25.24 106.552 25.24C105.672 25.7733 105.232 26.4 105.232 27.12C105.232 27.3333 105.432 27.52 105.832 27.68L106.432 27.92L106.752 30.04L107.472 31.36C107.472 31.4133 107.352 31.52 107.112 31.68C106.419 32.1867 105.886 32.44 105.512 32.44C104.899 32.44 104.206 32.6667 103.432 33.12L103.072 33.32H102.992C102.566 33.32 101.712 33.08 100.432 32.6L99.7925 32.36C99.7392 32.3067 99.7125 32.1867 99.7125 32L99.8325 30.12V29.96L99.3125 29.8C99.2325 29.8 99.0858 29.9467 98.8725 30.24C98.5258 30.6933 97.6858 31.36 96.3525 32.24L95.6725 32.68C94.8992 32.68 94.1258 32.44 93.3525 31.96C92.6058 31.48 92.0325 31.0267 91.6325 30.6C91.2325 30.1467 91.0325 29.8933 91.0325 29.84C91.0325 29.7867 91.0858 29.72 91.1925 29.64C91.4592 29.4 91.5925 29.1467 91.5925 28.88C91.5925 28.4 91.1125 28.04 90.1525 27.8L89.7125 27.68C89.7125 26.48 89.8192 25.32 90.0325 24.2C90.2725 23.08 90.4992 22.2667 90.7125 21.76L91.0725 20.96C91.3925 20.5333 92.4058 19.8667 94.1125 18.96C95.8192 18.0533 97.2058 17.6 98.2725 17.6C98.3525 17.6 98.4858 17.6933 98.6725 17.88C98.8858 18.04 99.0592 18.12 99.1925 18.12C99.3525 18.12 99.5392 18.0533 99.7525 17.92C100.206 17.68 100.432 17.48 100.432 17.32C100.432 16.92 100.246 16.4 99.8725 15.76C99.5792 15.4667 98.6325 15.24 97.0325 15.08L96.2325 15C95.6992 15 94.9525 15.2 93.9925 15.6C93.0325 15.9733 92.5258 16.16 92.4725 16.16C92.4192 16.16 92.2858 16 92.0725 15.68C91.8592 15.36 91.7525 15.1333 91.7525 15C91.7525 14.84 91.9925 14.2933 92.4725 13.36C92.9792 12.4 93.3258 11.8533 93.5125 11.72C93.8325 11.5333 94.8192 11.2133 96.4725 10.76C98.1258 10.3067 99.3125 10.08 100.032 10.08C101.206 10.8533 102.232 11.3467 103.112 11.56C104.019 11.7467 104.886 12.1467 105.712 12.76C106.539 13.3467 106.952 13.9333 106.952 14.52C106.952 14.5733 106.819 14.8533 106.552 15.36C106.312 15.8667 106.192 16.28 106.192 16.6C106.192 16.92 106.259 17.2 106.392 17.44L106.632 17.8C106.632 19.1333 106.592 19.8933 106.512 20.08C106.219 20.6667 106.072 20.9867 106.072 21.04L106.432 21.6V21.84ZM119.397 21.28L119.237 22.16C119.237 22.24 119.33 22.3867 119.517 22.6C119.73 22.7867 119.823 22.88 119.797 22.88C119.77 23.3067 119.757 23.7867 119.757 24.32C119.757 24.8533 119.797 25.1867 119.877 25.32C120.33 25.7467 120.637 25.96 120.797 25.96C120.983 25.96 121.303 25.7733 121.757 25.4C122.237 25 122.477 24.7733 122.477 24.72L122.237 24C122.05 23.5467 121.957 23.0533 121.957 22.52C121.957 22.4667 122.09 22.3333 122.357 22.12C122.623 21.9067 122.757 21.76 122.757 21.68C122.757 21.3867 122.65 21.0267 122.437 20.6V20.56C122.517 20.32 122.557 20 122.557 19.6L122.437 17.08V16.92C122.597 16.52 122.677 16.24 122.677 16.08C122.677 15.8933 122.517 15.6933 122.197 15.48C121.823 15.48 121.383 15.6933 120.877 16.12C120.397 16.5467 120.103 16.8 119.997 16.88C119.917 16.9333 119.877 17.32 119.877 18.04L120.037 20.12C120.037 20.44 120.01 20.6267 119.957 20.68C119.663 20.9733 119.477 21.1733 119.397 21.28ZM129.477 29.4L129.437 30.52V30.64C129.437 30.6667 129.263 30.84 128.917 31.16C128.597 31.48 128.437 31.8 128.437 32.12C128.437 32.2267 128.597 32.3867 128.917 32.6C129.263 32.84 129.437 32.9867 129.437 33.04C129.437 34.9867 129.21 36.64 128.757 38C128.597 38.48 128.463 38.7467 128.357 38.8C128.117 38.96 127.597 39.4133 126.797 40.16L126.397 40.56C125.997 41.1733 125.143 41.7867 123.837 42.4L123.157 42.68C123.103 42.68 122.957 42.4933 122.717 42.12C122.503 41.7733 122.343 41.6 122.237 41.6L121.477 41.88C121.29 42.0667 121.09 42.48 120.877 43.12C120.743 43.2533 120.17 43.3333 119.157 43.36C118.41 43.4133 117.677 43.4933 116.957 43.6C116.45 43.6 115.97 43.32 115.517 42.76C115.33 42.44 115.063 42.16 114.717 41.92C114.423 41.6267 114.13 40.64 113.837 38.96L113.717 38.12C113.717 37.88 113.983 37.4133 114.517 36.72C115.05 36.0267 115.357 35.64 115.437 35.56C115.543 35.5067 115.623 35.48 115.677 35.48L115.797 35.52C116.197 35.9733 116.81 36.4133 117.637 36.84C118.49 37.2933 119.103 37.52 119.477 37.52C119.877 37.52 120.503 37.1067 121.357 36.28C122.237 35.4533 122.677 34.8267 122.677 34.4L122.357 31.16C122.357 31 122.543 30.72 122.917 30.32C123.29 29.8933 123.477 29.6133 123.477 29.48C123.477 29.32 123.317 29.08 122.997 28.76C122.623 28.7867 122.063 29.2133 121.317 30.04C120.57 30.84 120.103 31.4667 119.917 31.92C119.863 32.0533 119.223 32.12 117.997 32.12H117.397C116.943 32.12 116.143 31.48 114.997 30.2C113.877 28.92 113.317 27.9733 113.317 27.36C113.637 27.0667 113.797 26.7733 113.797 26.48C113.797 26.1867 113.61 25.8533 113.237 25.48C113.103 25.3467 112.97 24.9333 112.837 24.24C112.73 23.52 112.677 23 112.677 22.68C112.677 21.9067 112.823 20.6933 113.117 19.04L113.237 18.24C113.237 18.2133 113.263 18.2 113.317 18.2H113.437C113.73 18.2 113.957 18.12 114.117 17.96L114.677 17.12C114.677 16.9867 114.53 16.7733 114.237 16.48C113.943 16.16 113.797 15.96 113.797 15.88C113.797 15.64 114.41 14.88 115.637 13.6C116.89 12.32 117.69 11.68 118.037 11.68C118.677 11.68 119.543 11.5067 120.637 11.16C121.73 10.8133 122.583 10.64 123.197 10.64C123.277 10.64 123.437 10.9333 123.677 11.52C123.917 12.08 124.223 12.36 124.597 12.36C124.73 12.36 124.917 12.16 125.157 11.76C125.423 11.3333 125.597 11.12 125.677 11.12C125.837 11.12 126.357 10.9467 127.237 10.6C128.117 10.2533 128.703 10.08 128.997 10.08C129.29 10.08 129.637 10.2 130.037 10.44C130.463 10.68 130.677 10.8667 130.677 11V11.04C130.223 11.7333 129.823 12.6933 129.477 13.92C129.157 15.1467 128.997 16.1467 128.997 16.92C129.397 17.2667 129.597 17.52 129.597 17.68V17.72C129.49 18.2 129.357 19.4933 129.197 21.6C129.063 23.68 128.997 25.04 128.997 25.68C128.997 26.32 129.01 26.6533 129.037 26.68C129.33 26.9733 129.477 27.88 129.477 29.4ZM153.444 22.04L153.244 27.16C153.244 28.44 153.351 29.3467 153.564 29.88C154.204 31.1867 154.524 31.8933 154.524 32C154.524 32.1067 154.311 32.2533 153.884 32.44C153.484 32.6267 153.284 32.84 153.284 33.08C153.284 33.3467 152.524 33.48 151.004 33.48C149.511 33.48 148.711 33.3867 148.604 33.2C148.524 33.04 148.058 32.6667 147.204 32.08C146.378 31.4933 145.964 31.08 145.964 30.84V30.8L146.124 27.8C146.124 27.5867 146.471 27.2133 147.164 26.68C147.244 26.6 147.284 26.44 147.284 26.2V26C147.284 25.8933 147.098 25.7467 146.724 25.56C146.378 25.3733 146.204 25.2 146.204 25.04C146.204 24.8533 146.284 24.3867 146.444 23.64C146.604 22.8667 146.684 22.2 146.684 21.64C146.684 21.0533 146.524 20.4667 146.204 19.88C146.204 19.56 146.458 19.0533 146.964 18.36C147.471 17.6667 147.724 17.2933 147.724 17.24C147.724 17.08 147.431 16.8933 146.844 16.68C146.471 16.68 146.031 16.9733 145.524 17.56C145.018 18.12 144.604 18.6933 144.284 19.28L143.804 20.12C143.671 20.6533 143.604 21.4 143.604 22.36L143.844 26.8C143.844 26.8533 143.711 27.0133 143.444 27.28C143.178 27.5467 143.044 27.7333 143.044 27.84C143.044 27.9467 143.071 28.0267 143.124 28.08C143.418 28.3733 143.564 29.0933 143.564 30.24V30.52C143.564 30.92 143.018 31.36 141.924 31.84C140.858 32.32 140.298 32.5867 140.244 32.64C140.191 32.6933 139.911 32.72 139.404 32.72L136.924 32.6C136.658 32.6 136.378 32.4533 136.084 32.16C136.084 31.84 136.284 31.0667 136.684 29.84L136.884 29.2C136.938 28.9867 136.964 28.6133 136.964 28.08L136.844 22.88C136.844 22.24 136.858 21.8933 136.884 21.84C136.938 21.7867 137.098 21.68 137.364 21.52C137.871 21.2267 138.124 20.96 138.124 20.72L137.884 20.08C137.804 19.8933 137.484 19.6933 136.924 19.48L137.164 14.48L136.644 10.2L137.084 9.64C137.111 9.61333 137.124 9.50667 137.124 9.32L137.004 7.24L137.084 6.44C137.084 6.09333 136.964 5.4 136.724 4.36C136.484 3.32 136.364 2.78667 136.364 2.76C136.364 2.54667 136.884 2.08 137.924 1.36C138.964 0.639998 139.698 0.279998 140.124 0.279998C140.551 0.279998 141.311 0.359998 142.404 0.519998C143.524 0.653331 144.084 0.813331 144.084 0.999999L143.684 4.8V5.04C143.151 5.52 142.884 5.82667 142.884 5.96C142.884 6.09333 142.938 6.21333 143.044 6.32C143.151 6.42667 143.271 6.52 143.404 6.6C143.751 6.81333 143.924 6.93333 143.924 6.96C143.764 7.38667 143.604 8.10667 143.444 9.12C143.284 10.1333 143.204 10.76 143.204 11V14.12C143.444 14.3067 143.631 14.4 143.764 14.4C144.298 14.4 144.818 13.52 145.324 11.76C146.764 11.1733 147.764 10.88 148.324 10.88C149.764 11.12 150.671 11.3333 151.044 11.52C151.418 11.68 151.951 12.1733 152.644 13C153.364 13.8 153.724 14.3867 153.724 14.76V15.68C153.724 17.52 153.764 18.6 153.844 18.92V18.96C153.844 19.0133 153.684 19.08 153.364 19.16C153.044 19.24 152.858 19.3067 152.804 19.36C152.378 19.9733 152.164 20.3733 152.164 20.56C152.164 20.8267 152.551 20.9867 153.324 21.04C153.404 21.12 153.444 21.4533 153.444 22.04ZM169.702 23.56L169.822 21.56C169.822 21.3733 169.796 21.28 169.742 21.28C169.396 21.28 168.796 21.4933 167.942 21.92C167.116 22.3467 166.702 22.72 166.702 23.04C166.916 23.3867 167.022 23.6667 167.022 23.88C167.022 24.0667 166.982 24.2 166.902 24.28C166.582 24.4133 166.422 24.6267 166.422 24.92C166.422 25.1867 166.596 25.5067 166.942 25.88C167.316 26.2267 167.622 26.4 167.862 26.4C168.102 26.4 168.516 26.1733 169.102 25.72C169.689 25.24 169.982 24.8933 169.982 24.68L169.942 24.6C169.782 24.44 169.702 24.0933 169.702 23.56ZM176.262 21.84L176.462 24.88C176.462 25.12 176.436 25.24 176.382 25.24C175.502 25.7733 175.062 26.4 175.062 27.12C175.062 27.3333 175.262 27.52 175.662 27.68L176.262 27.92L176.582 30.04L177.302 31.36C177.302 31.4133 177.182 31.52 176.942 31.68C176.249 32.1867 175.716 32.44 175.342 32.44C174.729 32.44 174.036 32.6667 173.262 33.12L172.902 33.32H172.822C172.396 33.32 171.542 33.08 170.262 32.6L169.622 32.36C169.569 32.3067 169.542 32.1867 169.542 32L169.662 30.12V29.96L169.142 29.8C169.062 29.8 168.916 29.9467 168.702 30.24C168.356 30.6933 167.516 31.36 166.182 32.24L165.502 32.68C164.729 32.68 163.956 32.44 163.182 31.96C162.436 31.48 161.862 31.0267 161.462 30.6C161.062 30.1467 160.862 29.8933 160.862 29.84C160.862 29.7867 160.916 29.72 161.022 29.64C161.289 29.4 161.422 29.1467 161.422 28.88C161.422 28.4 160.942 28.04 159.982 27.8L159.542 27.68C159.542 26.48 159.649 25.32 159.862 24.2C160.102 23.08 160.329 22.2667 160.542 21.76L160.902 20.96C161.222 20.5333 162.236 19.8667 163.942 18.96C165.649 18.0533 167.036 17.6 168.102 17.6C168.182 17.6 168.316 17.6933 168.502 17.88C168.716 18.04 168.889 18.12 169.022 18.12C169.182 18.12 169.369 18.0533 169.582 17.92C170.036 17.68 170.262 17.48 170.262 17.32C170.262 16.92 170.076 16.4 169.702 15.76C169.409 15.4667 168.462 15.24 166.862 15.08L166.062 15C165.529 15 164.782 15.2 163.822 15.6C162.862 15.9733 162.356 16.16 162.302 16.16C162.249 16.16 162.116 16 161.902 15.68C161.689 15.36 161.582 15.1333 161.582 15C161.582 14.84 161.822 14.2933 162.302 13.36C162.809 12.4 163.156 11.8533 163.342 11.72C163.662 11.5333 164.649 11.2133 166.302 10.76C167.956 10.3067 169.142 10.08 169.862 10.08C171.036 10.8533 172.062 11.3467 172.942 11.56C173.849 11.7467 174.716 12.1467 175.542 12.76C176.369 13.3467 176.782 13.9333 176.782 14.52C176.782 14.5733 176.649 14.8533 176.382 15.36C176.142 15.8667 176.022 16.28 176.022 16.6C176.022 16.92 176.089 17.2 176.222 17.44L176.462 17.8C176.462 19.1333 176.422 19.8933 176.342 20.08C176.049 20.6667 175.902 20.9867 175.902 21.04L176.262 21.6V21.84ZM194.146 17.2C194.146 17.0133 193.826 16.7867 193.186 16.52C192.813 16.52 192.226 17.08 191.426 18.2C190.653 19.32 190.266 20.2 190.266 20.84L190.546 22.72C190.76 23.3333 190.866 23.8133 190.866 24.16L190.706 24.76C190.173 25.2933 189.906 26.04 189.906 27V27.04C189.906 27.0933 190.013 27.2 190.226 27.36C190.44 27.52 190.546 27.6133 190.546 27.64C190.44 27.7467 190.386 28.2133 190.386 29.04C190.386 29.84 190.426 30.4933 190.506 31C190.586 31.5067 190.626 31.8133 190.626 31.92C190.626 32 190.573 32.04 190.466 32.04C190.36 32.04 189.813 32.2667 188.826 32.72C187.866 33.2 187.186 33.44 186.786 33.44C185.906 33.44 184.986 33.2533 184.026 32.88L183.226 32.68C183.226 32.2 183.28 31.5867 183.386 30.84C183.52 30.0667 183.64 29.6133 183.746 29.48C183.88 29.3467 183.946 29.1067 183.946 28.76C183.946 28.4133 183.88 27.5867 183.746 26.28C183.613 24.9467 183.546 23.8133 183.546 22.88L184.306 22.28C184.44 22.1467 184.506 21.96 184.506 21.72L184.466 21.36C184.413 21.3067 184.253 21.2 183.986 21.04C183.72 20.88 183.586 20.76 183.586 20.68L183.666 20.16C183.8 19.3067 183.866 18.36 183.866 17.32C183.866 15.6133 183.626 14.08 183.146 12.72L182.906 12.04C182.906 11.8267 183.546 11.4 184.826 10.76C186.133 10.12 186.96 9.8 187.306 9.8C187.653 9.8 188.186 9.94667 188.906 10.24C189.626 10.5333 189.986 10.7333 189.986 10.84C189.746 12.76 189.626 14.0533 189.626 14.72C189.893 14.88 190.066 14.96 190.146 14.96C190.226 14.96 190.266 14.9333 190.266 14.88C191.333 13.0133 192.066 11.88 192.466 11.48C193.88 10.92 195.213 10.64 196.466 10.64C196.84 10.64 197.546 11.1067 198.586 12.04C199.653 12.9733 200.173 13.56 200.146 13.8C199.986 14.6 199.906 16.1733 199.906 18.52C199.346 18.8133 198.973 19.0667 198.786 19.28C198.706 19.5733 198.666 19.8133 198.666 20C198.666 20.16 198.706 20.24 198.786 20.24C199.586 20.32 199.986 20.44 199.986 20.6C199.853 22.12 199.786 23.1867 199.786 23.8C199.786 24.3867 199.813 24.7067 199.866 24.76C200.16 25.2133 200.306 25.6133 200.306 25.96C199.933 26.36 199.746 26.7733 199.746 27.2C199.746 27.6 199.88 28.24 200.146 29.12C200.413 29.9733 200.68 30.72 200.946 31.36C201.213 32 201.346 32.3467 201.346 32.4C201.346 32.48 201.093 32.6667 200.586 32.96C200.106 33.2533 199.48 33.5333 198.706 33.8C197.96 34.0933 197.36 34.24 196.906 34.24C196.48 34.24 195.88 34.1333 195.106 33.92C194.333 33.7333 193.88 33.5733 193.746 33.44C193.586 33.28 193.466 32.4533 193.386 30.96L193.346 30.24L194.266 29.48C194.346 29.4 194.386 29.2667 194.386 29.08L194.306 28.52C194.146 28.36 193.92 28.2533 193.626 28.2C193.333 28.12 193.186 28.0533 193.186 28L193.426 24.2C193.426 24.0133 193.493 23.76 193.626 23.44C193.786 23.12 193.866 22.9067 193.866 22.8C193.866 22.6667 193.72 22.32 193.426 21.76C193.16 21.1733 193.026 20.7733 193.026 20.56C193.026 20.1333 193.306 19.24 193.866 17.88L194.146 17.2Z" fill="white"/>
</svg>
