<?xml version="1.0" standalone="no"?>
<!DOCTYPE svg PUBLIC "-//W3C//DTD SVG 20010904//EN"
 "http://www.w3.org/TR/2001/REC-SVG-20010904/DTD/svg10.dtd">
<svg version="1.0" xmlns="http://www.w3.org/2000/svg"
 width="1200.000000pt" height="630.000000pt" viewBox="0 0 1200.000000 630.000000"
 preserveAspectRatio="xMidYMid meet">

<g transform="translate(0.000000,630.000000) scale(0.100000,-0.100000)"
fill="#000000" stroke="none">
<path d="M5734 5406 c-445 -116 -763 -486 -814 -948 -11 -97 -6 -239 9 -281 6
-15 71 23 426 244 231 144 430 271 442 283 22 21 22 25 25 374 2 193 3 352 3
352 0 -1 -41 -12 -91 -24z"/>
<path d="M6188 5082 c2 -310 4 -349 20 -370 9 -13 208 -143 442 -288 359 -224
425 -262 431 -247 15 42 20 184 9 281 -29 266 -140 493 -328 674 -158 152
-316 235 -552 291 l-25 6 3 -347z"/>
<path d="M5755 4145 c-22 -8 -195 -62 -385 -120 -190 -59 -349 -111 -353 -115
-13 -11 47 -125 111 -210 106 -142 240 -255 395 -330 l77 -38 88 64 c141 105
132 73 132 446 0 248 -3 318 -12 317 -7 0 -31 -7 -53 -14z"/>
<path d="M6190 3843 c0 -374 -9 -342 132 -447 l88 -64 77 38 c199 97 370 261
474 455 24 43 38 80 33 85 -8 7 -705 227 -779 246 l-25 6 0 -319z"/>
<path d="M4320 1895 l0 -665 120 0 120 0 0 665 0 665 -120 0 -120 0 0 -665z"/>
<path d="M4740 1895 l0 -665 120 0 120 0 0 665 0 665 -120 0 -120 0 0 -665z"/>
<path d="M7372 1898 l3 -663 117 -3 117 -3 3 283 c3 241 5 288 20 313 36 65
104 105 182 105 81 0 134 -33 167 -105 17 -36 19 -69 19 -317 l0 -278 120 0
121 0 -3 338 -3 337 -33 67 c-50 102 -129 158 -253 180 -104 18 -248 -20 -303
-81 -11 -12 -23 -21 -28 -21 -4 0 -8 115 -8 255 l0 255 -120 0 -120 0 2 -662z"/>
<path d="M1620 1870 l0 -640 130 0 130 0 0 435 0 436 211 -236 c161 -179 217
-235 235 -235 26 0 36 10 274 280 90 102 167 187 172 188 4 2 8 -192 8 -432
l0 -436 125 0 125 0 0 640 0 640 -112 0 -113 0 -239 -285 c-132 -157 -240
-284 -242 -282 -14 16 -328 388 -393 465 l-86 102 -112 0 -113 0 0 -640z"/>
<path d="M3522 2149 c-72 -12 -166 -62 -221 -117 -180 -182 -176 -520 8 -695
94 -90 170 -119 307 -118 102 1 180 28 240 83 l43 40 3 -54 3 -53 118 -3 117
-3 0 456 0 456 -117 -3 -118 -3 -3 -47 c-2 -27 -5 -48 -8 -48 -3 0 -17 12 -32
26 -42 39 -113 72 -183 84 -72 11 -83 11 -157 -1z m212 -221 c62 -19 130 -91
150 -157 20 -68 20 -104 1 -167 -43 -145 -207 -216 -343 -148 -84 42 -132 128
-132 233 2 179 152 290 324 239z"/>
<path d="M5473 2149 c-215 -37 -355 -218 -355 -459 0 -251 145 -434 371 -471
111 -17 240 15 313 80 20 17 38 31 42 31 3 0 6 -22 6 -50 l0 -50 120 0 120 0
0 455 0 455 -120 0 -120 0 0 -50 c0 -27 -3 -50 -6 -50 -3 0 -24 16 -47 35 -74
64 -208 95 -324 74z m232 -233 c61 -28 87 -56 116 -121 43 -97 21 -224 -50
-294 -92 -90 -240 -94 -336 -10 -69 61 -100 211 -63 299 54 128 207 186 333
126z"/>
<path d="M6541 2140 c-120 -32 -190 -85 -255 -193 -109 -182 -79 -460 64 -607
143 -147 435 -166 568 -38 l32 32 0 -52 c0 -118 -72 -193 -215 -222 -92 -19
-208 -5 -381 45 -20 6 -22 1 -34 -90 -9 -68 -10 -99 -2 -107 6 -6 48 -22 94
-35 104 -31 286 -42 392 -23 158 28 289 117 349 239 l32 66 3 492 3 493 -116
0 -115 0 0 -50 c0 -27 -3 -50 -6 -50 -3 0 -24 16 -47 35 -87 75 -234 101 -366
65z m296 -236 c69 -43 106 -108 111 -196 7 -113 -40 -202 -132 -251 -58 -30
-165 -30 -223 1 -153 80 -177 312 -44 423 55 47 95 59 174 55 53 -3 77 -10
114 -32z"/>
<path d="M8705 2147 c-145 -37 -250 -129 -306 -268 -30 -77 -38 -253 -14 -334
52 -181 179 -297 354 -326 109 -17 240 16 313 80 20 17 38 31 42 31 3 0 6 -22
6 -50 l0 -50 120 0 120 0 0 455 0 455 -120 0 -120 0 0 -50 c0 -27 -3 -50 -6
-50 -3 0 -24 16 -47 35 -79 68 -232 100 -342 72z m250 -231 c28 -13 60 -34 72
-47 39 -43 66 -117 66 -186 0 -277 -361 -352 -469 -97 -24 56 -21 163 7 220
24 50 80 102 130 120 57 21 138 17 194 -10z"/>
<path d="M9953 2149 c-61 -12 -123 -41 -166 -79 l-37 -32 0 51 0 51 -115 0
-115 0 0 -455 0 -455 120 0 120 0 0 278 c0 247 2 281 19 317 32 69 93 105 180
105 61 0 97 -13 134 -48 50 -47 57 -98 57 -389 l0 -263 121 0 120 0 -3 333
c-4 379 -6 390 -85 477 -86 96 -215 136 -350 109z"/>
</g>
</svg>
