<?xml version="1.0" standalone="no"?>
<!DOCTYPE svg PUBLIC "-//W3C//DTD SVG 20010904//EN"
 "http://www.w3.org/TR/2001/REC-SVG-20010904/DTD/svg10.dtd">
<svg version="1.0" xmlns="http://www.w3.org/2000/svg"
 width="432.000000pt" height="360.000000pt" viewBox="0 0 432.000000 360.000000"
 preserveAspectRatio="xMidYMid meet">

<g transform="translate(0.000000,360.000000) scale(0.100000,-0.100000)"
fill="#000000" stroke="none">
<path d="M1693 3219 c-203 -34 -393 -193 -468 -392 -25 -68 -48 -199 -44 -250
2 -18 -3 -71 -10 -120 -13 -82 -16 -89 -47 -108 -19 -11 -48 -38 -66 -60 l-33
-39 -80 14 c-57 10 -95 12 -130 5 -54 -10 -158 -56 -207 -90 -17 -13 -54 -26
-82 -30 -48 -8 -56 -14 -139 -101 -48 -51 -94 -106 -103 -122 -11 -19 -17 -60
-18 -130 -3 -99 -13 -147 -59 -286 -12 -36 -20 -81 -19 -101 2 -25 -6 -48 -29
-83 -29 -43 -30 -48 -15 -64 13 -15 14 -25 5 -58 -14 -49 -4 -202 17 -253 29
-74 194 -191 340 -241 80 -28 174 -50 174 -41 0 14 -36 41 -53 41 -9 0 -17 5
-17 11 0 5 10 9 23 7 16 -2 21 2 19 13 -2 15 3 15 55 3 70 -16 73 -17 73 -4 0
5 -11 12 -24 16 -29 7 -77 54 -55 54 8 0 38 -9 68 -20 29 -12 56 -18 59 -15 3
3 -12 23 -33 45 -43 44 -42 47 12 25 56 -24 68 -14 43 35 -19 38 -19 40 -2 40
10 0 33 -11 52 -25 54 -40 67 -28 29 26 -33 46 5 38 50 -11 42 -46 66 -53 51
-16 -12 33 -3 38 33 15 48 -29 128 -25 230 11 115 40 132 40 133 -5 1 -41 37
-85 70 -85 33 0 79 43 94 90 16 50 28 60 22 20 -7 -52 23 -49 79 6 47 47 72
44 27 -3 -23 -25 -17 -44 9 -27 17 11 24 21 42 67 8 20 17 27 37 27 24 0 26
-2 20 -33 -12 -59 -11 -69 7 -81 12 -8 22 -8 35 0 13 9 23 8 42 -6 21 -14 46
-17 147 -16 74 1 119 -3 115 -8 -3 -6 9 0 26 12 17 13 34 27 37 33 10 16 -5
49 -23 49 -15 1 -15 2 1 11 11 6 22 7 26 3 4 -5 54 -68 110 -141 108 -139 144
-170 236 -208 32 -13 60 -28 64 -33 21 -35 116 -41 181 -11 l44 20 18 -23 c29
-38 24 -43 -47 -40 l-30 1 28 -9 c17 -5 39 -5 52 0 18 7 27 4 46 -17 l24 -26
-25 13 -25 13 20 -23 20 -22 -35 7 -35 8 31 -26 31 -26 313 -7 c227 -4 311 -3
306 5 -4 6 -19 11 -34 12 -27 1 -27 1 6 15 39 17 42 29 5 19 -16 -4 -57 -8
-92 -10 -63 -2 -63 -2 -35 13 16 8 33 21 37 28 4 8 16 14 25 15 10 0 12 3 5 6
-7 2 -38 -7 -69 -21 -70 -32 -77 -32 -39 0 21 18 24 24 10 19 -51 -19 -58 -15
-22 11 22 16 33 30 26 33 -7 2 4 18 27 38 29 26 31 30 9 15 -16 -11 -39 -30
-50 -42 -18 -20 -66 -50 -79 -50 -11 0 121 117 157 139 20 12 37 25 37 27 0 6
-11 0 -85 -50 -33 -22 -61 -38 -61 -36 -1 3 -10 -2 -20 -11 -26 -21 -74 -41
-74 -29 0 5 5 12 10 15 6 4 8 10 5 16 -3 5 5 37 19 71 14 35 19 54 10 43 -8
-10 -22 -43 -31 -72 -9 -29 -20 -53 -24 -53 -4 0 -21 -12 -38 -26 -17 -14 -31
-24 -31 -22 0 1 7 28 15 58 8 30 13 56 11 57 -2 2 -16 -18 -32 -44 l-29 -48
-5 40 -5 40 -15 -60 -15 -60 -11 50 -12 50 -1 -50 -1 -50 -25 43 c-28 50 -104
149 -134 176 -13 12 -19 26 -15 38 12 38 -85 149 -160 185 -22 10 -41 23 -43
30 -9 25 193 130 212 111 4 -4 -12 -30 -35 -59 -22 -28 -39 -57 -37 -63 7 -21
60 -39 121 -39 99 -1 156 43 156 119 0 46 -45 93 -113 119 l-47 18 -40 -28
c-36 -25 -42 -26 -70 -15 -17 7 -57 41 -89 76 -47 51 -57 69 -53 89 4 22 -9
39 -83 110 -48 46 -84 89 -81 94 7 11 -37 46 -111 87 -36 20 -53 35 -53 49 0
36 -28 100 -44 103 -20 4 -20 10 2 47 49 81 73 125 69 125 -3 0 -43 -62 -88
-137 -45 -76 -89 -148 -97 -160 -8 -13 -12 -23 -9 -23 3 0 22 27 42 60 52 86
88 75 50 -16 -16 -39 -12 -59 12 -50 10 4 13 1 9 -14 -3 -11 -8 -28 -11 -37
-12 -43 -14 -113 -3 -119 6 -4 23 7 37 25 36 44 54 41 46 -7 -6 -36 -4 -39 32
-59 25 -14 49 -19 69 -16 62 10 54 -24 -27 -113 -28 -31 -49 -64 -49 -76 0
-18 18 -5 93 70 51 50 96 92 100 92 14 0 6 -29 -33 -118 -22 -49 -40 -102 -40
-117 0 -22 -3 -26 -17 -20 -31 13 -86 24 -143 28 -30 2 -56 10 -58 16 -2 6 21
41 52 77 51 60 66 84 50 84 -18 0 -47 -26 -80 -71 -21 -29 -40 -47 -42 -40 -2
6 19 42 47 80 45 60 63 101 45 101 -18 0 -66 -46 -94 -90 -18 -28 -36 -48 -41
-43 -4 4 -1 40 6 78 21 116 27 165 18 165 -5 0 -29 -41 -53 -91 -25 -50 -48
-93 -52 -95 -4 -3 -16 0 -27 6 -19 9 -19 13 -5 45 15 37 19 152 5 174 -15 23
-46 3 -127 -81 l-77 -81 -139 18 c-76 9 -160 25 -186 35 -26 10 -68 21 -94 24
l-47 7 25 47 c21 38 25 57 21 102 -6 77 10 132 93 320 104 238 102 232 101
342 -1 94 0 98 24 114 14 9 32 14 40 10 20 -7 20 -11 -20 77 -45 96 -73 216
-81 339 l-7 96 -25 -9 c-13 -5 -37 -19 -53 -30 l-28 -20 15 43 c8 23 22 53 30
66 21 31 73 62 107 62 15 0 40 9 55 20 31 22 110 35 287 47 66 4 107 9 90 11
-16 2 -46 18 -66 36 -47 43 -129 81 -203 95 -68 12 -108 12 -183 0z m-79 -897
c35 -155 14 -302 -73 -505 -63 -148 -83 -213 -90 -302 l-6 -70 -48 -3 c-71 -5
-106 25 -134 114 -41 128 -75 322 -79 459 l-4 130 28 -80 c36 -98 204 -507
208 -503 1 2 27 116 58 253 61 272 86 420 86 505 0 30 3 72 7 94 l6 38 12 -29
c7 -16 20 -62 29 -101z m-722 -240 c52 -45 81 -62 103 -62 16 0 29 -16 54 -69
33 -67 33 -69 22 -135 -10 -59 -10 -69 6 -89 28 -38 63 -61 75 -49 13 13 2 32
-19 32 -12 0 -14 6 -8 28 11 47 21 44 40 -12 14 -42 16 -58 7 -69 -9 -10 -5
-29 18 -83 28 -67 28 -70 11 -89 -31 -34 -47 -90 -33 -120 6 -14 8 -25 4 -25
-5 0 -30 46 -56 102 l-47 102 38 33 38 32 -51 1 c-48 0 -53 -2 -78 -38 -30
-44 -31 -48 -11 -85 14 -27 13 -31 -10 -61 -27 -36 -32 -62 -12 -69 6 -3 -21
-6 -60 -6 -40 -1 -73 1 -73 3 0 3 14 20 30 38 41 45 105 171 123 243 22 86 32
175 19 175 -12 0 -18 -27 -28 -115 -12 -112 -61 -213 -142 -297 -41 -43 -51
-48 -89 -48 -30 0 -43 4 -43 14 0 8 -11 17 -25 20 -35 9 -32 36 4 36 59 0 46
47 -26 91 -26 17 -31 24 -23 35 7 7 9 18 5 24 -3 5 1 13 9 16 9 3 16 10 16 16
0 8 -57 36 -125 62 -19 8 -19 9 5 18 14 5 40 7 59 4 58 -9 19 16 -46 29 -53
11 -56 13 -29 20 15 4 43 3 62 -3 22 -6 36 -7 40 0 9 14 -26 37 -68 44 -21 4
-35 10 -32 15 9 14 61 10 99 -8 19 -9 38 -14 41 -10 12 12 -16 35 -71 57 -56
23 -80 50 -45 50 11 0 20 7 20 15 0 8 2 15 5 15 14 0 62 -30 80 -50 11 -12 28
-26 39 -32 14 -8 13 -2 -8 25 -34 45 -118 102 -173 118 -48 14 -58 39 -15 39
36 0 116 -38 176 -84 l48 -38 -28 38 c-16 21 -47 50 -68 66 -21 15 -34 28 -27
28 19 0 53 -20 85 -49 l29 -26 -19 33 c-10 19 -40 54 -66 78 -32 30 -42 44
-30 44 9 0 56 -40 103 -90 48 -49 92 -90 98 -90 21 0 11 26 -19 53 -24 22 -30
35 -30 66 0 74 62 95 122 43z m230 -692 l28 -50 -49 0 c-76 0 -86 7 -51 37 17
14 30 33 30 44 0 31 13 22 42 -31z m1523 -139 c-22 -44 -26 -38 -7 10 9 23 18
37 20 31 2 -6 -4 -24 -13 -41z m65 -79 c0 -10 -20 -40 -44 -67 l-43 -50 -39
18 c-35 17 -37 20 -19 30 11 5 40 28 64 49 47 41 81 49 81 20z m-211 -146 c65
-34 151 -112 151 -138 0 -25 15 -54 58 -105 25 -32 30 -43 18 -43 -9 0 -21 -8
-27 -19 -11 -17 -13 -17 -29 -2 -15 14 -15 19 -3 43 17 34 17 48 0 48 -8 0
-22 -18 -32 -40 -19 -43 -45 -72 -45 -51 0 7 10 29 22 50 22 39 20 71 -5 71
-8 0 -20 -13 -27 -30 -7 -16 -17 -30 -22 -30 -6 0 -7 8 -3 18 4 9 9 32 12 49
8 45 -12 50 -83 19 -49 -20 -61 -22 -72 -12 -11 11 -10 21 8 56 18 34 20 48
11 66 -6 13 -19 25 -28 25 -32 2 -58 -2 -67 -12 -19 -18 -26 -9 -26 32 l0 42
68 -5 c46 -4 84 -14 121 -32z m289 -314 c17 -11 5 -39 -19 -45 -15 -4 -19 -2
-15 10 3 8 6 21 6 29 0 16 9 18 28 6z"/>
<path d="M850 2060 c0 -11 12 -26 29 -35 17 -8 31 -25 33 -37 5 -35 33 -29 33
7 0 21 -7 33 -24 41 -13 7 -28 20 -33 28 -13 23 -38 20 -38 -4z"/>
<path d="M982 1937 c-37 -44 -52 -149 -33 -217 7 -24 8 -24 15 10 4 19 24 68
44 108 28 57 34 77 26 90 -14 22 -38 26 -52 9z"/>
<path d="M767 1862 c-8 -13 5 -57 34 -112 25 -47 32 -126 17 -200 l-7 -35 14
30 c22 47 18 135 -10 222 -28 87 -40 110 -48 95z"/>
<path d="M770 1700 c28 -57 35 -63 26 -25 -4 17 -16 39 -28 50 -19 19 -19 18
2 -25z"/>
<path d="M744 1681 c20 -29 36 -60 36 -69 0 -8 3 -13 6 -9 12 12 -17 74 -48
103 l-31 29 37 -54z"/>
<path d="M886 1567 c-83 -130 -103 -226 -23 -114 57 80 77 125 67 152 -6 17
-12 12 -44 -38z"/>
<path d="M2193 3073 c9 -2 25 -2 35 0 9 3 1 5 -18 5 -19 0 -27 -2 -17 -5z"/>
<path d="M2268 3063 c7 -3 16 -2 19 1 4 3 -2 6 -13 5 -11 0 -14 -3 -6 -6z"/>
<path d="M2436 2815 c-4 -102 -11 -244 -16 -317 -18 -256 -20 -309 -10 -253
30 162 66 625 54 703 -13 86 -21 47 -28 -133z"/>
<path d="M1673 2978 c-18 -5 -33 -10 -33 -11 0 -2 23 -27 51 -57 156 -166 257
-374 293 -605 7 -50 14 -76 15 -58 2 54 -19 182 -45 272 -29 102 -103 259
-174 370 -62 97 -66 100 -107 89z"/>
<path d="M2502 2924 c-1 -17 -4 -47 -7 -65 l-5 -34 11 34 c5 18 8 47 6 65 l-4
31 -1 -31z"/>
<path d="M2481 2604 c0 -11 3 -14 6 -6 3 7 2 16 -1 19 -3 4 -6 -2 -5 -13z"/>
<path d="M2494 2440 c0 -69 1 -97 3 -62 2 34 2 90 0 125 -2 34 -3 6 -3 -63z"/>
<path d="M1735 2329 c-19 -29 25 -142 53 -137 22 4 26 27 12 77 -15 57 -49 88
-65 60z"/>
<path d="M2483 2265 c0 -27 2 -38 4 -22 2 15 2 37 0 50 -2 12 -4 0 -4 -28z"/>
<path d="M1825 2187 c-12 -27 -47 -34 -66 -11 -12 14 -15 8 -26 -52 -9 -49
-35 -113 -88 -219 -84 -167 -106 -243 -86 -294 21 -50 38 -38 43 32 11 126 76
262 178 372 26 27 52 60 59 72 12 24 14 78 3 105 -7 16 -8 16 -17 -5z"/>
<path d="M2391 2174 c0 -11 3 -14 6 -6 3 7 2 16 -1 19 -3 4 -6 -2 -5 -13z"/>
<path d="M2003 2093 c15 -2 37 -2 50 0 12 2 0 4 -28 4 -27 0 -38 -2 -22 -4z"/>
<path d="M2138 2083 c34 -2 90 -2 125 0 34 2 6 3 -63 3 -69 0 -97 -1 -62 -3z"/>
<path d="M1973 2063 c9 -2 25 -2 35 0 9 3 1 5 -18 5 -19 0 -27 -2 -17 -5z"/>
<path d="M2328 2063 c6 -2 18 -2 25 0 6 3 1 5 -13 5 -14 0 -19 -2 -12 -5z"/>
<path d="M2098 2053 c34 -2 90 -2 125 0 34 2 6 3 -63 3 -69 0 -97 -1 -62 -3z"/>
<path d="M2373 2045 c-11 -8 -66 -96 -122 -195 -80 -142 -109 -183 -134 -196
-27 -14 -62 -16 -246 -13 -193 4 -216 2 -219 -12 -5 -26 25 -29 278 -29 l236
0 61 103 c34 56 92 159 128 230 65 124 69 148 18 112z"/>
<path d="M1816 1968 c-45 -82 -121 -267 -112 -275 11 -11 368 -32 392 -23 26
10 72 84 147 236 l54 110 -171 0 c-94 -1 -194 2 -223 7 l-52 8 -35 -63z"/>
<path d="M1767 1948 c-50 -90 -99 -190 -95 -193 2 -2 33 55 71 126 69 133 86
177 24 67z"/>
<path d="M3154 1894 c-8 -20 -14 -42 -12 -49 2 -8 10 8 19 36 18 57 15 65 -7
13z"/>
<path d="M3073 1690 c0 -41 2 -58 4 -37 2 20 2 54 0 75 -2 20 -4 3 -4 -38z"/>
<path d="M3301 1701 c-29 -56 -26 -65 5 -13 14 24 24 46 21 49 -3 3 -15 -13
-26 -36z"/>
<path d="M2971 1714 c0 -11 3 -14 6 -6 3 7 2 16 -1 19 -3 4 -6 -2 -5 -13z"/>
<path d="M3997 1673 c-34 -27 -83 -82 -76 -86 2 -1 30 24 61 56 32 31 56 57
55 57 -2 0 -20 -12 -40 -27z"/>
<path d="M2982 1665 c0 -16 6 -52 13 -80 l14 -50 -5 45 c-3 25 -9 61 -14 80
-8 34 -8 34 -8 5z"/>
<path d="M2891 1616 c9 -12 23 -32 32 -46 10 -13 17 -19 17 -12 0 7 -15 27
-32 45 -18 18 -26 24 -17 13z"/>
<path d="M3379 1585 c-11 -25 -19 -50 -17 -55 2 -6 13 15 25 45 26 66 20 73
-8 10z"/>
<path d="M4110 1613 c-27 -10 -100 -66 -100 -77 0 -5 12 2 28 16 15 14 45 35
67 46 37 20 40 28 5 15z"/>
<path d="M1738 1543 c7 -3 16 -2 19 1 4 3 -2 6 -13 5 -11 0 -14 -3 -6 -6z"/>
<path d="M2048 1543 c6 -2 18 -2 25 0 6 3 1 5 -13 5 -14 0 -19 -2 -12 -5z"/>
<path d="M1796 1529 c40 -9 139 -9 194 -1 29 5 -3 7 -89 7 -74 0 -121 -3 -105
-6z"/>
<path d="M2749 1525 c5 -11 26 -38 46 -60 26 -29 31 -32 16 -10 -30 44 -74 93
-62 70z"/>
<path d="M1745 1515 c22 -8 58 -13 80 -13 32 0 26 3 -30 13 -87 17 -101 17
-50 0z"/>
<path d="M3664 1471 c-21 -16 -55 -46 -74 -67 -32 -36 -31 -35 15 6 28 25 64
55 80 67 17 12 27 23 24 23 -3 0 -24 -13 -45 -29z"/>
<path d="M3156 1420 c8 -43 14 -51 14 -19 0 13 -5 31 -10 39 -7 11 -8 5 -4
-20z"/>
<path d="M3252 1435 c-1 -11 3 -38 7 -60 l9 -40 0 35 c0 19 -4 46 -8 60 -6 20
-8 21 -8 5z"/>
<path d="M2954 1376 c12 -30 23 -52 25 -50 5 5 -29 93 -38 99 -5 2 1 -20 13
-49z"/>
<path d="M3044 1395 c3 -9 15 -47 27 -86 12 -38 23 -68 25 -66 6 6 -45 167
-53 167 -3 0 -2 -7 1 -15z"/>
<path d="M4171 1400 c-1 -8 -12 -41 -25 -72 -13 -32 -20 -55 -15 -53 12 8 50
116 45 129 -2 6 -5 4 -5 -4z"/>
<path d="M3401 1329 c-6 -28 -10 -54 -7 -56 2 -2 9 19 15 48 6 28 10 54 7 56
-2 2 -9 -19 -15 -48z"/>
<path d="M2770 1367 c0 -3 21 -22 48 -43 26 -21 38 -28 27 -15 -21 24 -75 66
-75 58z"/>
<path d="M2761 1324 c13 -17 26 -30 28 -27 3 2 -8 16 -24 31 l-28 27 24 -31z"/>
<path d="M3487 1305 c-9 -20 -17 -41 -17 -48 0 -7 9 8 20 32 24 52 21 66 -3
16z"/>
<path d="M3710 1316 c-19 -13 -48 -39 -65 -57 l-30 -34 35 31 c19 17 53 43 75
58 22 14 35 26 30 25 -6 0 -26 -11 -45 -23z"/>
<path d="M4041 1330 c-1 -8 -14 -43 -31 -77 -16 -35 -27 -63 -24 -63 10 0 66
130 61 142 -4 9 -6 8 -6 -2z"/>
<path d="M3131 1274 c0 -11 3 -14 6 -6 3 7 2 16 -1 19 -3 4 -6 -2 -5 -13z"/>
<path d="M3143 1200 c0 -30 2 -43 4 -27 2 15 2 39 0 55 -2 15 -4 2 -4 -28z"/>
<path d="M3776 1176 c-31 -35 -56 -67 -56 -70 0 -3 19 16 43 42 61 68 81 92
75 92 -3 0 -31 -29 -62 -64z"/>
<path d="M3820 1161 c-19 -11 -44 -29 -55 -41 -12 -14 1 -8 35 15 77 52 82 59
20 26z"/>
<path d="M3243 1130 c0 -25 2 -35 4 -22 2 12 2 32 0 45 -2 12 -4 2 -4 -23z"/>
<path d="M3344 1095 c-6 -27 -14 -59 -18 -70 -3 -11 3 -1 14 23 12 24 20 55
18 70 -2 21 -5 16 -14 -23z"/>
<path d="M3814 1008 c-22 -24 -47 -52 -55 -63 -26 -37 17 3 62 56 50 60 47 63
-7 7z"/>
<path d="M3490 959 c-18 -42 -81 -138 -125 -191 -21 -23 -13 -18 16 14 50 52
137 193 126 204 -2 3 -10 -9 -17 -27z"/>
<path d="M3565 908 l-50 -53 53 50 c28 27 52 51 52 52 0 8 -9 -1 -55 -49z"/>
<path d="M2846 919 c16 -20 31 -34 33 -32 3 2 -10 18 -29 36 l-34 32 30 -36z"/>
<path d="M2981 930 c0 -3 6 -25 13 -50 8 -25 15 -36 15 -25 0 17 -26 88 -28
75z"/>
<path d="M1655 862 c-11 -20 -35 -47 -54 -59 -19 -13 -29 -23 -23 -23 17 0 72
50 88 82 22 43 12 43 -11 0z"/>
<path d="M3171 839 c-12 -35 -21 -70 -20 -78 0 -9 11 18 24 59 29 90 26 106
-4 19z"/>
<path d="M3298 873 c-25 -27 -58 -84 -58 -100 0 -4 12 12 26 37 14 25 35 55
46 68 12 12 19 22 17 22 -3 0 -17 -12 -31 -27z"/>
<path d="M3860 823 c-46 -47 -49 -51 -17 -28 32 24 86 85 75 85 -2 0 -28 -25
-58 -57z"/>
<path d="M1828 863 c12 -2 30 -2 40 0 9 3 -1 5 -23 4 -22 0 -30 -2 -17 -4z"/>
<path d="M1998 857 c-12 -5 -43 -6 -68 -4 l-45 6 35 -13 c24 -9 43 -10 60 -4
14 6 61 10 105 10 91 -1 90 5 -2 10 -33 2 -72 0 -85 -5z"/>
<path d="M3053 795 c0 -38 2 -53 4 -32 2 20 2 52 0 70 -2 17 -4 1 -4 -38z"/>
<path d="M1005 806 c-71 -23 -139 -48 -150 -55 l-20 -13 20 7 c11 4 80 27 154
51 120 39 163 56 135 53 -5 0 -67 -20 -139 -43z"/>
<path d="M1416 837 c3 -10 15 -22 25 -27 29 -16 123 -12 145 6 18 15 18 15 -3
5 -12 -6 -45 -11 -74 -11 -41 0 -58 5 -76 22 -19 18 -23 19 -17 5z"/>
<path d="M2951 810 c-1 -3 12 -37 29 -75 16 -39 29 -63 29 -55 0 15 -56 140
-58 130z"/>
<path d="M3490 771 c-19 -11 -55 -38 -80 -60 l-45 -42 66 48 c36 27 74 53 85
60 29 18 13 14 -26 -6z"/>
<path d="M845 715 c-16 -14 -45 -30 -63 -36 -18 -6 -31 -13 -29 -16 9 -8 91
33 111 56 25 28 18 26 -19 -4z"/>
<path d="M3141 724 c0 -11 3 -14 6 -6 3 7 2 16 -1 19 -3 4 -6 -2 -5 -13z"/>
<path d="M3946 715 c-61 -26 -88 -43 -48 -30 35 10 128 54 117 54 -5 0 -37
-11 -69 -24z"/>
<path d="M3212 620 c0 -19 2 -27 5 -17 2 9 2 25 0 35 -3 9 -5 1 -5 -18z"/>
<path d="M3548 634 c-27 -8 -48 -17 -48 -20 0 -4 8 -3 18 1 9 4 44 13 77 20
37 8 49 13 30 14 -16 0 -51 -7 -77 -15z"/>
<path d="M3465 600 c-3 -6 1 -7 9 -4 18 7 21 14 7 14 -6 0 -13 -4 -16 -10z"/>
<path d="M3782 589 c-35 -11 -62 -22 -60 -24 5 -5 138 34 138 40 0 8 -10 5
-78 -16z"/>
<path d="M2478 533 c12 -2 30 -2 40 0 9 3 -1 5 -23 4 -22 0 -30 -2 -17 -4z"/>
<path d="M2660 523 c8 -3 34 -14 58 -24 23 -10 42 -16 42 -14 0 9 -80 45 -97
44 -14 0 -15 -2 -3 -6z"/>
<path d="M2721 526 c8 -7 99 -35 99 -30 0 8 -67 34 -86 34 -10 0 -15 -2 -13
-4z"/>
<path d="M3581 506 c2 -2 42 -6 89 -8 47 -3 74 -2 60 2 -25 8 -157 13 -149 6z"/>
<path d="M3675 433 c11 -3 39 -11 62 -18 24 -7 41 -10 38 -5 -5 8 -87 31 -107
29 -7 -1 -4 -4 7 -6z"/>
</g>
</svg>
